<?xml version="1.0" standalone="no"?>
<!DOCTYPE svg PUBLIC "-//W3C//DTD SVG 20010904//EN"
 "http://www.w3.org/TR/2001/REC-SVG-20010904/DTD/svg10.dtd">
<svg version="1.0" xmlns="http://www.w3.org/2000/svg"
 width="5000.000000pt" height="5000.000000pt" viewBox="0 0 5000.000000 5000.000000"
 preserveAspectRatio="xMidYMid meet">
<metadata>
Created by potrace 1.14, written by Peter Selinger 2001-2017
</metadata>
<g transform="translate(0.000000,5000.000000) scale(0.100000,-0.100000)"
fill="#000000" stroke="none">
<path d="M48693 40022 c-133 -73 -179 -112 -479 -409 l-311 -308 -51 -105
c-28 -58 -67 -124 -86 -146 -70 -82 -285 -538 -341 -724 -21 -70 -55 -169 -82
-240 -18 -47 -27 -96 -33 -180 -4 -63 -15 -135 -25 -160 -9 -25 -22 -88 -30
-140 -7 -52 -22 -121 -34 -152 -12 -32 -21 -81 -21 -110 0 -75 -13 -115 -86
-267 -58 -121 -73 -143 -147 -218 -103 -106 -134 -125 -198 -125 -83 0 -133
49 -132 131 1 52 19 95 53 126 12 11 39 49 60 85 21 36 61 87 89 115 54 53 63
78 32 95 -26 13 -49 4 -152 -63 -67 -43 -160 -129 -454 -421 -261 -259 -385
-376 -425 -398 -33 -19 -118 -93 -215 -188 -92 -90 -179 -167 -204 -180 -25
-12 -92 -69 -150 -125 -58 -57 -131 -118 -161 -136 -31 -19 -76 -49 -100 -67
-45 -33 -119 -82 -234 -156 -34 -21 -86 -61 -116 -88 -30 -27 -80 -63 -110
-80 -35 -19 -124 -99 -245 -218 -104 -103 -206 -195 -225 -205 -19 -10 -61
-36 -92 -59 -31 -22 -77 -53 -102 -69 -39 -24 -49 -38 -81 -114 -28 -67 -49
-101 -94 -148 -32 -33 -71 -85 -86 -115 -15 -30 -43 -72 -61 -94 -20 -24 -44
-70 -60 -120 -32 -98 -65 -165 -92 -189 -28 -26 -215 -405 -208 -423 7 -19 46
-18 75 2 13 9 52 27 88 39 72 26 116 21 188 -18 33 -18 49 -38 87 -112 26 -49
50 -104 53 -121 9 -41 -54 -232 -97 -300 -17 -27 -48 -89 -68 -139 -20 -49
-54 -119 -76 -155 -22 -36 -45 -74 -52 -85 -15 -27 -75 -175 -122 -303 -42
-115 -57 -137 -115 -163 -54 -25 -90 -23 -152 5 -56 27 -82 63 -103 148 -9 36
-8 52 5 88 9 25 26 74 37 110 11 36 52 128 90 205 53 105 85 155 129 203 32
34 62 74 65 87 8 33 -12 57 -40 49 -78 -23 -133 -60 -232 -156 l-106 -103
-103 -205 c-80 -160 -106 -222 -119 -285 -18 -90 -87 -242 -133 -296 -17 -19
-42 -58 -57 -87 -17 -33 -39 -60 -58 -70 -17 -9 -44 -28 -60 -41 -36 -29 -144
-242 -182 -359 -18 -54 -42 -101 -69 -135 -23 -28 -75 -119 -117 -202 -86
-172 -104 -190 -185 -190 -65 0 -99 22 -135 88 -14 25 -39 63 -57 84 -76 96
-141 267 -129 344 11 72 54 140 106 167 25 13 63 38 85 56 22 18 58 42 80 54
22 11 58 34 80 52 22 17 88 56 147 86 119 61 188 125 234 217 14 27 47 72 72
99 l47 50 6 162 c6 192 17 222 108 320 47 50 77 99 136 215 41 83 95 177 119
209 29 38 51 81 66 131 27 92 97 233 142 287 55 67 127 234 178 411 30 106
158 347 221 416 31 34 66 82 78 106 12 23 49 71 81 106 70 75 116 164 173 329
l42 121 0 210 c0 201 -2 213 -25 269 -27 63 -54 91 -69 68 -4 -7 -20 -52 -35
-100 -43 -138 -77 -211 -117 -258 -27 -32 -46 -70 -69 -141 -17 -54 -52 -137
-78 -185 -39 -72 -66 -104 -163 -196 -107 -101 -127 -116 -245 -175 -71 -35
-165 -76 -209 -90 -44 -14 -111 -43 -148 -63 -56 -30 -75 -47 -104 -93 -20
-31 -50 -71 -66 -90 -16 -19 -35 -48 -42 -65 -19 -45 -54 -74 -118 -96 -49
-17 -83 -20 -244 -20 -170 0 -194 -2 -267 -25 -45 -13 -107 -29 -138 -35 -62
-12 -83 -29 -73 -59 7 -23 16 -27 108 -46 102 -21 266 -103 311 -156 97 -114
80 -229 -44 -292 -50 -26 -63 -28 -136 -25 -78 4 -85 7 -265 96 -101 50 -233
108 -294 129 -104 35 -117 37 -235 37 -109 0 -135 -3 -208 -27 -46 -15 -94
-27 -107 -27 -14 0 -57 -11 -97 -24 -40 -13 -93 -27 -118 -31 -60 -8 -229 -67
-327 -112 -75 -35 -84 -37 -218 -44 -111 -5 -151 -11 -195 -29 -46 -19 -82
-23 -225 -29 -187 -8 -197 -11 -291 -82 -65 -50 -388 -211 -480 -239 -38 -12
-86 -28 -107 -36 -56 -21 -105 -17 -173 15 -70 33 -131 97 -140 149 -13 66 11
110 110 206 107 104 166 136 273 146 91 9 119 29 94 68 -4 8 -59 31 -122 53
-114 40 -114 40 -274 41 l-160 0 -355 -120 c-195 -66 -390 -137 -432 -157 -71
-34 -88 -38 -200 -45 -68 -5 -141 -13 -162 -19 -46 -11 -169 11 -331 61 -116
36 -162 57 -207 97 -18 16 -98 61 -178 101 -80 39 -170 91 -200 115 -30 23
-71 50 -90 60 -19 10 -53 32 -75 50 -22 18 -56 40 -75 50 -19 10 -53 32 -75
50 -22 18 -58 42 -80 54 -22 11 -65 39 -95 61 -89 66 -222 150 -236 150 -17 0
-44 -28 -44 -46 0 -27 27 -79 64 -123 21 -25 47 -63 58 -85 27 -56 113 -143
169 -171 25 -13 75 -51 112 -84 37 -33 86 -70 109 -82 24 -12 106 -83 183
-159 90 -88 158 -147 191 -163 28 -14 94 -66 147 -114 88 -81 130 -113 271
-200 28 -17 71 -47 96 -66 25 -19 61 -42 80 -52 19 -10 53 -32 75 -50 22 -18
63 -45 90 -60 28 -15 61 -37 75 -50 46 -41 73 -52 410 -165 532 -177 645 -246
756 -460 30 -58 69 -124 87 -147 17 -23 41 -57 52 -75 11 -18 45 -49 76 -70
45 -29 60 -47 79 -89 12 -29 25 -76 29 -103 4 -28 12 -60 19 -72 20 -38 192
-194 240 -218 60 -30 81 -55 89 -99 9 -60 -4 -101 -49 -148 -61 -63 -78 -90
-78 -123 0 -49 78 -263 141 -386 33 -65 59 -129 59 -146 0 -16 -9 -55 -19 -85
-48 -135 -36 -302 30 -443 23 -49 44 -106 46 -126 12 -84 -52 -170 -125 -170
-53 0 -92 29 -131 96 -19 32 -40 69 -48 82 -38 63 -81 1 -119 -172 -13 -61
-28 -129 -33 -150 -6 -27 -5 -55 5 -90 8 -28 21 -85 28 -127 8 -42 22 -94 32
-115 12 -28 18 -74 21 -164 3 -103 8 -138 29 -198 33 -92 30 -171 -9 -248 -56
-110 -139 -154 -307 -164 -173 -10 -218 -39 -296 -189 -32 -61 -41 -88 -34
-101 5 -10 41 -25 94 -39 47 -13 100 -33 118 -45 69 -46 76 -116 23 -222 -39
-77 -42 -102 -20 -164 28 -81 12 -144 -59 -229 -51 -61 -66 -101 -76 -206 -4
-50 -16 -109 -25 -131 -19 -43 -38 -250 -29 -301 8 -42 38 -52 73 -24 14 11
49 33 76 47 28 15 71 44 96 65 54 45 87 59 137 59 57 0 99 -32 129 -96 33 -72
28 -124 -19 -224 -20 -41 -53 -124 -74 -185 -33 -93 -39 -123 -38 -190 0 -73
6 -100 78 -310 90 -267 90 -270 27 -402 -60 -124 -61 -145 -12 -288 23 -66 58
-157 77 -203 34 -80 36 -88 32 -180 -3 -92 -5 -102 -48 -187 l-45 -90 -3 -282
c-3 -277 -3 -283 22 -355 13 -40 27 -95 31 -121 3 -26 15 -73 26 -105 11 -31
24 -83 29 -116 5 -32 25 -91 44 -130 50 -102 107 -281 113 -353 4 -48 1 -79
-17 -133 -27 -83 -59 -116 -123 -125 -66 -10 -109 13 -152 79 -20 31 -42 56
-50 56 -40 0 -47 -121 -13 -210 20 -51 22 -80 27 -380 l6 -325 49 -140 c34
-97 51 -165 56 -221 6 -56 23 -125 59 -228 28 -81 51 -157 51 -169 0 -35 -39
-103 -66 -115 -37 -18 -85 -14 -122 8 -36 22 -58 65 -92 180 -31 105 -105 180
-178 180 -62 0 -66 -48 -9 -115 44 -51 57 -77 103 -205 l38 -105 6 -385 5
-385 74 -145 c40 -80 88 -163 107 -186 44 -54 135 -232 179 -349 37 -99 43
-156 24 -215 -7 -19 -15 -120 -18 -225 l-6 -190 -38 -80 c-22 -44 -48 -109
-59 -145 -11 -36 -38 -103 -61 -150 l-42 -85 0 -160 c0 -140 3 -165 20 -200
34 -68 51 -57 125 86 36 69 79 143 95 164 17 21 41 59 55 84 19 34 40 53 85
79 94 52 139 103 205 233 64 126 79 139 153 139 57 0 82 -20 102 -81 36 -106
2 -202 -113 -322 -62 -64 -83 -94 -97 -137 -10 -30 -44 -107 -75 -170 -32 -63
-65 -142 -74 -175 -10 -33 -46 -118 -81 -190 -64 -132 -135 -325 -135 -370 0
-13 -11 -57 -24 -97 -13 -40 -27 -93 -31 -118 -3 -25 -18 -80 -31 -123 -19
-62 -24 -100 -24 -186 0 -91 -4 -119 -26 -182 l-27 -74 2 -1040 c2 -702 6
-1054 13 -1083 6 -26 8 -78 4 -127 -5 -65 -2 -95 10 -132 9 -26 20 -86 24
-133 5 -59 17 -109 39 -162 17 -42 31 -89 31 -104 0 -55 13 -12 26 83 7 56 13
201 14 339 0 230 1 244 25 312 21 60 25 90 25 182 0 94 4 121 26 183 23 62 27
92 31 222 4 121 9 165 29 228 19 62 24 100 24 185 0 88 4 119 25 177 20 58 25
89 25 183 0 89 4 124 21 170 12 31 27 91 35 132 7 41 22 100 33 130 11 30 20
70 21 87 0 18 9 56 20 85 11 29 25 80 30 113 5 33 30 121 55 195 25 74 50 163
56 198 5 35 25 98 45 140 20 42 47 110 61 151 32 96 204 440 241 483 16 18 40
53 52 78 14 27 90 114 191 216 157 160 170 176 213 265 29 60 49 118 55 159 5
36 20 92 31 125 17 47 23 87 25 186 2 89 8 137 20 165 9 21 23 75 31 119 21
119 135 348 213 430 32 33 70 83 84 110 48 95 133 154 242 169 31 4 69 20 100
40 28 18 71 45 96 59 58 33 104 100 119 174 7 34 11 121 8 223 l-3 167 -35 68
c-56 109 -87 113 -123 15 -11 -30 -29 -68 -40 -84 -48 -68 -142 -67 -194 1
l-28 36 -3 337 c-3 401 -3 404 102 517 35 37 75 91 89 118 30 60 64 93 133
130 75 39 184 150 184 185 0 37 -21 43 -87 24 -50 -15 -58 -15 -106 1 -67 21
-118 55 -154 101 -23 31 -28 47 -28 95 0 49 5 64 38 111 32 47 37 62 37 111 0
69 29 158 68 207 35 44 104 80 153 80 46 0 179 -67 232 -119 46 -43 97 -141
137 -259 32 -96 88 -228 112 -264 28 -41 42 -9 49 115 4 83 12 126 28 167 13
30 26 93 31 140 4 47 16 111 26 142 15 49 15 63 4 103 -15 55 -70 115 -137
149 -79 40 -165 137 -217 245 -62 127 -64 145 -31 234 20 54 29 100 35 187 5
79 14 132 29 168 16 41 21 74 21 151 0 121 -7 159 -32 172 -16 9 -29 0 -84
-56 -96 -98 -162 -123 -242 -89 -54 22 -89 60 -108 116 -25 77 -5 117 127 254
59 61 110 122 113 135 3 13 10 48 15 76 12 59 89 219 117 245 11 9 47 26 81
37 58 19 85 21 360 21 l298 0 128 -41 c70 -23 142 -51 160 -63 32 -22 86 -107
107 -170 7 -22 9 -53 5 -79 -11 -66 -61 -193 -94 -239 -28 -41 -58 -113 -96
-237 -9 -30 -35 -91 -57 -135 -39 -76 -42 -88 -48 -196 -5 -82 -14 -132 -30
-175 -19 -51 -23 -81 -24 -196 -1 -100 3 -143 13 -162 15 -29 51 -36 69 -14 5
6 30 73 55 149 26 75 73 190 106 255 33 66 67 146 76 179 22 75 49 128 90 179
18 22 41 58 53 80 26 52 90 124 141 160 39 26 256 105 290 105 9 0 40 -11 68
-25 60 -28 87 -64 104 -142 15 -66 32 -81 103 -93 83 -13 172 -57 211 -103 48
-55 65 -114 74 -247 8 -110 10 -119 54 -207 26 -51 62 -106 79 -123 39 -36
362 -196 463 -230 39 -13 101 -38 140 -57 69 -33 128 -42 140 -23 10 17 -102
126 -163 158 -71 38 -215 181 -257 255 -16 30 -43 69 -59 88 -38 45 -175 323
-183 371 -4 31 3 56 48 149 81 173 77 260 -18 382 -85 109 -105 217 -59 319
13 29 33 62 45 72 29 26 118 33 157 13 46 -24 191 -171 215 -219 27 -54 58
-88 79 -88 23 0 42 23 89 111 38 70 46 79 92 99 28 12 79 26 113 31 33 5 86
18 116 28 30 10 80 22 110 26 30 4 81 18 112 31 32 13 64 24 71 24 8 0 55 -13
105 -30 80 -26 105 -30 204 -30 99 0 123 4 198 30 46 17 97 30 112 30 16 0 97
23 180 51 178 60 184 60 294 -22 38 -28 78 -55 89 -59 11 -4 47 -28 80 -52 33
-25 98 -64 145 -87 113 -57 270 -207 300 -289 31 -81 28 -235 -5 -330 -22 -63
-25 -88 -25 -204 0 -132 0 -133 31 -178 16 -25 39 -63 51 -85 11 -22 57 -78
103 -125 89 -92 125 -150 125 -202 -1 -55 -34 -113 -84 -147 -56 -39 -66 -57
-66 -116 0 -56 -32 -150 -61 -181 -32 -34 -101 -58 -149 -51 -93 12 -148 82
-169 216 -12 77 -34 113 -64 109 -33 -5 -59 -65 -123 -293 -16 -57 -16 -53 51
-265 41 -132 41 -175 -3 -263 -26 -49 -32 -55 -132 -104 -151 -76 -210 -72
-331 22 -30 24 -64 45 -75 47 -17 3 -19 -2 -16 -46 5 -99 81 -205 196 -273 33
-19 74 -46 90 -60 38 -31 189 -108 244 -122 70 -19 124 -46 187 -93 33 -25 77
-53 98 -63 51 -24 70 -64 65 -132 -3 -37 -11 -60 -27 -77 -31 -33 -186 -104
-256 -117 -33 -6 -96 -22 -140 -35 -44 -13 -92 -24 -107 -24 -15 0 -57 -11
-95 -24 -48 -17 -98 -25 -168 -29 -70 -3 -117 -11 -155 -26 -50 -20 -73 -22
-258 -21 -221 0 -228 2 -349 68 -80 43 -97 66 -129 169 -15 46 -55 140 -90
208 -40 78 -64 138 -64 158 0 39 57 213 94 284 30 59 33 85 11 103 -25 20 -81
2 -139 -44 -29 -24 -116 -76 -194 -115 -139 -71 -168 -94 -204 -160 -22 -41
-106 -81 -169 -81 -72 0 -151 46 -246 142 -45 46 -92 107 -108 137 -15 31 -59
85 -101 128 -66 64 -93 82 -226 149 -161 79 -200 88 -206 46 -5 -33 100 -346
143 -426 56 -106 63 -114 135 -157 83 -49 195 -162 204 -206 10 -43 -8 -103
-44 -147 -38 -48 -44 -92 -38 -279 5 -130 9 -163 32 -230 19 -57 26 -98 26
-153 0 -148 -35 -210 -136 -240 -92 -26 -105 -70 -48 -155 20 -30 43 -67 51
-84 9 -16 30 -48 48 -70 18 -23 43 -63 56 -90 30 -65 204 -239 281 -282 31
-18 83 -56 116 -85 33 -29 81 -64 108 -78 39 -20 55 -37 82 -85 18 -33 46 -73
62 -90 37 -39 90 -148 131 -266 18 -52 45 -112 60 -134 15 -22 118 -130 229
-240 111 -110 206 -207 211 -216 5 -10 25 -66 45 -125 36 -106 37 -114 44
-304 6 -181 9 -200 35 -268 l28 -74 -23 -55 c-26 -63 -37 -137 -22 -147 34
-21 72 40 79 128 2 34 13 78 24 99 12 20 25 51 29 68 5 18 10 185 11 373 l1
341 -26 74 c-22 63 -26 92 -26 183 0 90 -4 123 -25 183 -13 40 -27 104 -31
142 -8 85 -18 104 -94 178 -33 33 -75 83 -92 111 -20 33 -46 60 -72 75 -59 32
-214 186 -241 239 -61 120 -78 248 -41 304 20 31 85 50 141 41 55 -8 80 -36
143 -160 38 -74 67 -116 115 -163 59 -58 67 -63 136 -77 74 -16 129 -41 213
-98 26 -18 62 -41 80 -52 60 -36 172 -276 258 -550 10 -33 36 -112 58 -175 74
-219 91 -275 97 -320 4 -25 18 -79 31 -120 20 -65 23 -93 22 -210 -1 -133 0
-136 40 -252 51 -145 53 -150 118 -218 59 -63 133 -195 164 -296 12 -38 28
-87 35 -109 8 -22 16 -85 19 -140 3 -65 12 -121 26 -160 11 -33 24 -98 28
-145 5 -65 10 -85 22 -85 22 0 80 120 80 166 0 21 12 69 27 106 24 63 27 81
30 243 3 144 7 188 25 248 l22 72 -22 78 c-12 42 -25 97 -28 122 -4 25 -15 66
-25 92 -10 25 -21 70 -25 100 -4 29 -15 76 -25 103 -11 28 -19 60 -19 73 0 42
41 122 71 137 36 19 122 19 157 1 63 -33 114 -110 143 -218 6 -24 53 -128 104
-233 88 -179 165 -391 165 -451 0 -12 23 -89 50 -170 l50 -147 0 -269 0 -269
31 -92 c34 -104 34 -145 -3 -237 -21 -49 -23 -72 -23 -225 0 -159 2 -175 28
-253 15 -46 27 -91 27 -102 0 -10 21 -80 46 -157 43 -126 48 -150 55 -273 6
-103 14 -154 33 -213 23 -68 26 -94 26 -213 0 -117 3 -146 24 -207 13 -40 26
-106 30 -147 3 -41 14 -99 26 -129 15 -37 22 -82 24 -145 3 -77 10 -112 50
-231 26 -77 56 -180 67 -230 32 -150 49 -210 125 -450 41 -126 79 -254 84
-282 7 -41 296 -932 343 -1056 5 -16 30 -54 54 -85 24 -31 89 -146 143 -255
55 -109 113 -214 130 -233 16 -19 39 -54 51 -77 12 -23 36 -60 54 -82 18 -22
41 -58 53 -81 11 -22 37 -60 58 -85 20 -24 55 -82 77 -129 22 -47 57 -105 77
-130 21 -25 56 -83 80 -130 23 -47 61 -110 84 -140 23 -30 49 -72 58 -92 10
-20 33 -54 51 -75 19 -21 65 -99 102 -173 59 -117 133 -235 141 -227 2 2 -3
39 -11 82 -16 94 -64 243 -104 329 -16 34 -37 86 -46 116 -9 30 -25 78 -35
105 -11 28 -22 64 -26 80 -3 17 -26 71 -50 120 -28 58 -47 114 -53 155 -11 78
-70 258 -111 339 -16 32 -39 89 -51 127 -12 38 -36 98 -54 134 -18 36 -42 95
-53 132 -12 36 -33 90 -47 119 -15 28 -63 160 -106 293 -44 132 -97 277 -118
321 -42 87 -95 252 -106 327 -4 26 -27 105 -52 175 -24 70 -51 153 -60 183 -8
30 -20 64 -26 75 -6 11 -14 61 -18 110 -5 51 -18 114 -30 145 -20 52 -21 70
-21 356 l1 302 75 225 c55 163 78 247 85 308 5 46 16 104 25 128 21 58 20 119
-4 183 -11 29 -24 82 -29 118 -7 48 -26 99 -74 195 -98 197 -105 242 -53 359
21 46 32 60 63 72 53 23 111 13 201 -32 l77 -39 55 -109 c45 -87 68 -121 121
-170 57 -54 75 -64 153 -90 49 -15 125 -46 170 -67 74 -36 86 -39 167 -39 94
0 116 11 104 50 -7 22 -100 90 -123 90 -25 0 -262 242 -289 295 -14 28 -39 65
-54 83 -37 41 -60 89 -89 177 -43 133 -94 219 -189 318 -120 126 -126 144
-126 362 l0 170 48 103 c43 89 50 114 57 195 5 50 16 110 25 132 10 22 21 69
26 104 6 43 25 97 56 160 l47 96 4 140 4 140 -67 199 c-39 115 -94 253 -130
327 -38 76 -66 148 -70 177 -3 26 -12 75 -19 109 -9 41 -11 76 -5 105 5 23 13
72 19 108 6 35 20 84 30 108 21 47 120 156 162 178 79 41 221 -9 333 -117 34
-33 68 -59 76 -59 20 0 39 20 39 42 0 10 14 59 30 109 l31 92 -3 376 -3 376
-72 150 c-39 83 -76 166 -82 186 -7 20 -23 51 -37 70 -14 19 -48 79 -76 134
-46 90 -64 113 -188 240 -76 77 -147 159 -159 182 -12 23 -34 57 -50 75 -16
18 -50 75 -76 126 -42 81 -49 105 -57 184 -5 49 -20 124 -35 165 -22 63 -25
87 -21 156 5 83 35 165 71 196 21 17 79 25 122 17 48 -9 119 -75 152 -141 14
-27 46 -73 72 -100 25 -28 51 -60 57 -70 19 -33 29 -7 16 40 -7 25 -12 81 -12
124 0 78 13 128 90 343 13 39 20 82 20 136 0 86 -4 95 -77 174 -52 57 -113
179 -113 227 0 24 29 92 93 218 l92 184 3 220 c3 242 -2 269 -53 269 -41 0
-55 -34 -55 -132 0 -120 -23 -180 -105 -266 -34 -37 -71 -85 -83 -107 -23 -45
-43 -65 -89 -89 -44 -22 -89 -20 -149 8 -41 19 -55 32 -75 72 -22 45 -24 62
-27 225 -3 160 -1 180 18 230 12 31 25 93 29 146 7 80 13 103 54 188 53 109
140 210 212 245 69 33 102 28 331 -52 43 -15 82 -3 90 26 7 31 -24 103 -69
159 -39 47 -136 237 -174 337 -14 36 -39 88 -58 115 -18 28 -81 147 -140 265
-79 157 -122 258 -161 378 -60 181 -64 190 -109 247 -18 22 -56 85 -84 140
-39 74 -72 119 -126 175 -40 41 -90 104 -111 140 -21 36 -61 90 -91 121 -62
65 -88 119 -103 213 -13 83 -45 161 -74 181 -13 10 -46 15 -94 15 -59 0 -88 6
-146 30 -166 69 -246 142 -246 225 0 61 13 88 69 148 55 59 66 83 52 121 -13
33 -29 33 -94 -3 -32 -19 -79 -34 -122 -41 -48 -7 -100 -25 -165 -57 -84 -42
-110 -62 -221 -170 -92 -90 -135 -140 -159 -186 -19 -34 -59 -89 -91 -122 -31
-33 -68 -82 -82 -110 -31 -60 -175 -205 -234 -234 -23 -11 -75 -50 -115 -86
-52 -46 -92 -72 -138 -89 -122 -46 -375 -124 -424 -131 -28 -4 -72 -15 -98
-26 -42 -16 -75 -19 -242 -19 -173 0 -199 2 -252 22 -51 19 -88 22 -279 27
-208 6 -223 8 -269 31 -59 30 -78 54 -109 140 -13 36 -38 85 -55 109 -26 35
-32 54 -32 93 0 27 6 61 14 76 22 42 130 140 178 161 54 23 86 57 70 73 -22
22 -104 21 -167 -2 -285 -103 -328 -86 -410 162 -55 166 -44 247 48 356 20 24
57 87 83 140 29 60 65 115 95 147 49 52 59 81 37 103 -22 22 -47 13 -103 -38
-30 -27 -73 -59 -96 -71 -61 -31 -147 -116 -176 -174 -15 -29 -69 -95 -133
-160 -62 -64 -123 -137 -145 -175 -20 -36 -59 -88 -85 -116 -26 -28 -58 -70
-70 -95 -13 -24 -38 -61 -56 -81 -18 -21 -44 -59 -58 -86 -38 -76 -89 -113
-301 -218 l-198 -99 -116 -3 -116 -4 -159 52 c-104 34 -186 55 -240 60 -44 4
-99 16 -121 26 -31 14 -76 19 -205 24 -152 5 -170 7 -223 32 -52 25 -60 33
-85 85 -23 50 -27 71 -27 148 0 131 18 163 168 312 114 114 128 124 212 160
87 37 90 39 127 103 54 92 50 107 -39 145 -40 16 -82 40 -94 51 -30 31 -37
104 -14 154 17 37 116 134 162 158 44 24 109 14 193 -28 70 -35 83 -46 104
-88 14 -26 45 -71 69 -100 57 -69 77 -131 77 -239 0 -94 17 -143 51 -143 15 0
27 16 49 65 37 83 60 160 60 202 0 19 12 62 26 96 21 49 27 79 27 144 1 78 -1
84 -36 135 -20 29 -48 84 -62 122 -14 37 -37 83 -51 102 -66 87 -83 220 -42
346 22 68 22 70 5 136 -22 85 -21 104 2 150 27 53 51 71 104 78 61 9 83 2 147
-46 62 -46 103 -51 108 -12 2 12 -13 72 -32 134 -34 106 -36 119 -36 249 0
161 -9 193 -79 287 -71 94 -83 142 -79 305 3 131 4 134 41 209 47 96 83 128
142 128 68 0 106 -40 178 -188 57 -117 104 -178 131 -169 18 6 19 57 1 104
-10 24 -15 56 -12 71 9 47 83 243 123 327 l39 80 0 295 0 295 -27 79 c-16 43
-28 96 -28 117 0 82 112 370 177 455 13 17 51 46 86 65 36 19 102 71 157 123
113 108 161 130 268 124 100 -5 159 -38 195 -107 33 -66 34 -108 5 -186 -15
-43 -23 -90 -26 -165 l-4 -105 57 -170 c53 -159 56 -175 53 -246 -4 -63 -11
-91 -42 -155 -43 -90 -116 -302 -116 -338 0 -13 -13 -64 -30 -114 -27 -83 -30
-104 -30 -224 0 -114 -4 -144 -25 -211 -30 -94 -31 -154 -4 -227 14 -37 23
-95 29 -175 6 -105 12 -129 40 -193 18 -40 37 -69 41 -65 18 18 29 152 29 356
0 194 2 224 20 265 10 26 24 67 31 92 18 73 47 121 121 199 70 73 98 120 98
163 0 12 12 59 26 103 83 250 116 342 132 363 9 13 44 35 77 49 70 30 111 27
190 -12 47 -22 58 -34 82 -83 24 -51 28 -71 31 -180 4 -106 1 -132 -16 -180
-47 -130 -37 -174 65 -283 70 -74 126 -179 180 -336 35 -103 37 -115 40 -256
2 -132 0 -155 -21 -220 -13 -39 -27 -94 -31 -122 -4 -27 -15 -72 -25 -100 -10
-27 -25 -74 -35 -104 -9 -30 -34 -90 -56 -134 -50 -99 -51 -140 -1 -145 28 -3
41 5 96 58 36 34 78 88 96 121 18 33 45 75 60 92 15 18 60 97 100 176 55 111
74 160 81 210 5 36 19 91 32 121 21 52 22 69 22 300 0 227 -2 249 -22 305 -12
33 -27 91 -34 128 -6 38 -25 94 -41 125 -17 31 -61 150 -99 266 l-69 209 0
212 c0 202 1 216 25 279 14 37 25 80 25 96 0 42 182 584 224 667 21 44 38 95
44 139 12 84 30 127 79 190 20 27 59 92 86 144 39 77 66 113 140 188 78 78
102 96 159 118 81 32 147 29 230 -10 74 -35 107 -73 177 -209 77 -149 197
-499 206 -602 4 -39 18 -105 33 -147 l26 -77 -26 -83 c-51 -157 -48 -174 31
-266 89 -104 105 -171 61 -250 -24 -43 -101 -92 -143 -92 -82 0 -216 107 -282
227 -26 44 -42 63 -53 61 -15 -3 -18 -25 -23 -168 -4 -121 -10 -177 -22 -209
-21 -54 -22 -105 -2 -161 8 -23 20 -71 25 -106 7 -44 32 -107 82 -208 68 -138
71 -149 79 -239 9 -110 22 -145 74 -207 52 -62 186 -335 192 -393 9 -81 -36
-204 -122 -328 -26 -37 -35 -64 -40 -111 -7 -70 0 -98 44 -161 54 -79 59 -104
63 -279 3 -155 2 -167 -25 -248 -15 -47 -36 -105 -46 -130 -11 -25 -26 -83
-34 -130 -15 -86 -66 -206 -127 -295 -15 -22 -33 -58 -40 -80 -23 -73 -42 -99
-150 -211 -66 -68 -118 -131 -135 -164 -15 -30 -51 -79 -80 -109 -29 -31 -69
-83 -88 -116 -20 -33 -58 -82 -86 -110 -92 -89 -55 -118 74 -59 44 20 100 53
125 73 51 42 127 82 245 130 l81 32 386 387 c261 261 393 401 408 431 15 30
25 74 30 137 10 113 43 195 88 218 83 43 145 36 195 -23 62 -74 57 -154 -21
-311 l-47 -95 0 -195 0 -195 33 -88 c42 -115 49 -127 72 -127 37 0 53 44 60
163 7 122 25 171 91 248 20 24 47 82 76 165 42 123 45 135 47 254 2 105 6 133
25 175 41 93 135 165 214 165 49 0 129 -43 170 -90 57 -67 67 -111 67 -289 0
-86 5 -176 11 -200 14 -62 194 -418 233 -461 18 -20 43 -57 55 -84 13 -26 61
-87 106 -134 45 -48 92 -107 105 -132 13 -25 63 -86 112 -137 48 -50 95 -107
103 -126 8 -19 30 -53 50 -77 20 -24 48 -66 62 -94 14 -28 51 -78 83 -111 32
-33 67 -79 79 -103 12 -23 49 -72 82 -109 33 -37 69 -83 79 -103 10 -20 26
-42 34 -49 21 -17 49 -6 43 16 -3 10 -17 72 -32 138 -14 66 -84 298 -155 515
-103 317 -129 409 -133 467 -3 57 -12 88 -42 150 -20 43 -74 189 -120 324 -90
270 -84 255 -135 320 -79 100 -172 345 -185 484 -3 39 -17 105 -30 148 -14 43
-25 100 -25 127 0 27 -11 83 -24 124 -14 40 -27 96 -31 122 -4 27 -28 94 -53
149 -47 99 -47 101 -53 235 -3 74 -12 160 -19 190 -24 107 25 170 130 170 67
0 103 -27 143 -107 19 -37 45 -97 57 -133 13 -36 33 -78 45 -95 51 -69 68
-118 75 -212 7 -82 12 -101 56 -188 46 -93 48 -99 54 -213 4 -74 15 -141 28
-182 11 -36 24 -83 29 -105 7 -33 12 -40 32 -40 15 0 32 11 45 28 21 28 21 38
24 537 l3 509 -50 148 c-27 81 -55 180 -62 218 -13 77 -80 222 -127 277 -40
46 -107 173 -126 237 -20 68 -20 163 0 216 8 22 28 78 44 125 15 47 74 175
130 285 66 130 118 247 147 335 l45 135 -5 245 c-5 245 -10 294 -30 287 -6 -2
-34 -71 -62 -153 -67 -196 -112 -280 -188 -350 -69 -64 -90 -74 -156 -74 -37
0 -57 7 -88 29 -88 63 -113 130 -113 295 l0 123 50 98 c27 54 67 121 89 149
49 65 90 152 138 291 l38 110 5 325 5 325 28 50 c15 28 43 69 62 93 21 26 43
71 56 115 23 80 50 136 85 182 14 18 25 52 30 85 3 30 15 75 25 99 11 24 22
69 26 100 3 31 17 84 30 119 29 78 29 93 -1 189 -21 68 -25 103 -29 283 -3
113 -9 218 -13 233 -15 61 -21 47 -168 -400 -26 -78 -54 -159 -62 -180 -10
-23 -71 -94 -154 -178 -75 -77 -145 -155 -154 -173 -13 -26 -16 -55 -14 -140
3 -105 2 -109 -25 -146 -46 -60 -101 -90 -162 -90 -67 0 -100 22 -131 87 -41
88 -35 120 53 302 l78 159 0 176 c0 159 -2 180 -23 228 -12 30 -27 93 -32 140
-5 48 -18 115 -30 148 -20 59 -21 78 -18 390 3 325 4 330 28 379 22 46 24 64
26 210 2 143 5 165 26 210 22 49 23 60 28 410 5 328 7 364 25 400 15 31 20 72
25 185 6 118 11 154 29 192 13 28 23 76 27 125 3 43 17 110 30 150 13 39 24
85 24 102 0 17 12 61 26 98 25 64 27 80 28 253 2 173 4 188 26 235 22 46 24
66 28 225 4 170 -8 334 -27 367 -14 26 -59 -73 -76 -165 -8 -43 -20 -97 -28
-122 -9 -25 -23 -70 -32 -100 -28 -89 -92 -216 -124 -243 -64 -54 -160 -40
-207 30 -31 47 -97 260 -98 318 0 29 9 74 21 105 12 30 40 115 64 189 46 147
216 497 270 558 38 44 162 293 178 357 18 72 47 123 117 204 35 40 73 91 85
115 12 23 84 105 160 183 76 77 139 148 139 157 0 9 -9 21 -19 27 -32 16 -132
12 -168 -8z m-7613 -8832 c37 -13 82 -19 138 -20 118 0 253 -49 347 -125 22
-18 59 -42 82 -54 54 -27 75 -50 120 -130 50 -89 50 -142 1 -233 -21 -40 -39
-89 -43 -120 -3 -29 -18 -88 -32 -132 -36 -112 -30 -171 32 -299 56 -113 59
-149 22 -230 -31 -69 -65 -92 -132 -92 -40 0 -61 7 -101 33 -62 39 -86 40
-113 5 -42 -53 -53 -120 -49 -306 4 -146 7 -180 25 -222 11 -27 33 -88 48
-134 34 -107 31 -144 -25 -259 -40 -82 -43 -94 -50 -202 -5 -84 -13 -129 -29
-166 -27 -61 -121 -156 -206 -207 -86 -51 -241 -212 -250 -259 -4 -20 -5 -113
-3 -205 4 -147 7 -174 27 -218 28 -63 29 -118 1 -183 -27 -63 -44 -78 -98 -90
-111 -25 -203 59 -282 258 -17 43 -22 75 -22 144 1 82 4 94 41 170 22 44 50
113 62 151 26 87 42 119 86 172 69 86 77 117 81 324 5 209 -3 264 -49 352 -38
73 -119 316 -119 355 0 18 -15 51 -37 83 -66 97 -68 112 -28 236 38 115 117
280 144 299 33 25 92 26 158 3 62 -22 63 -22 84 -3 61 54 63 138 10 291 -44
126 -43 123 -87 178 -18 22 -54 85 -81 140 -43 90 -48 106 -48 170 0 62 5 81
47 170 29 63 50 125 56 167 15 98 48 158 102 186 54 27 98 27 170 2z m-2369
-10207 c43 -23 59 -37 77 -75 32 -63 38 -115 19 -160 -20 -47 -56 -71 -109
-70 -57 1 -86 25 -132 112 -46 87 -53 145 -21 180 42 47 90 51 166 13z"/>
<path d="M3080 38728 c0 -31 58 -87 128 -122 55 -28 111 -86 143 -148 12 -23
70 -92 129 -153 59 -60 117 -129 129 -152 12 -23 34 -57 50 -75 48 -55 90
-128 122 -213 17 -44 48 -109 70 -145 21 -36 50 -99 64 -140 14 -41 38 -102
54 -135 16 -33 37 -85 46 -115 10 -30 38 -100 63 -155 45 -96 46 -104 47 -195
0 -82 -4 -103 -27 -152 -18 -38 -36 -62 -57 -72 -45 -24 -119 -20 -162 7 -57
35 -132 124 -183 218 -71 133 -106 152 -106 59 0 -33 18 -103 55 -213 30 -90
55 -177 55 -193 0 -16 11 -60 25 -99 13 -38 25 -83 25 -98 0 -35 82 -283 109
-328 11 -19 35 -79 54 -135 19 -55 61 -152 94 -215 l58 -114 3 -258 3 -259
-41 -126 c-55 -167 -148 -348 -221 -426 -31 -34 -69 -83 -84 -111 -16 -27 -39
-63 -51 -80 -12 -16 -35 -71 -53 -122 -29 -86 -31 -99 -31 -242 0 -127 3 -159
20 -203 25 -66 25 -118 1 -166 -33 -65 -54 -77 -133 -77 -66 0 -71 2 -98 32
-29 33 -70 143 -70 192 0 14 -12 58 -25 96 -34 95 -33 173 1 262 22 58 27 85
28 178 1 153 -11 190 -96 282 -91 98 -108 139 -118 281 -7 114 -22 154 -49
137 -23 -14 -90 -164 -101 -226 -6 -35 -22 -99 -36 -142 -19 -62 -24 -100 -24
-181 0 -83 -5 -118 -25 -181 -22 -67 -26 -97 -29 -253 -3 -159 -6 -185 -30
-255 -26 -77 -26 -81 -26 -366 0 -226 3 -298 15 -337 19 -63 19 -113 -1 -196
-17 -67 -17 -67 12 -155 80 -249 -10 -454 -177 -404 -52 16 -90 50 -138 125
-45 72 -59 85 -72 65 -5 -8 -8 -139 -7 -294 l3 -280 49 -95 c26 -52 63 -113
81 -135 18 -22 42 -59 54 -82 11 -23 34 -57 50 -76 16 -18 51 -75 78 -127 47
-92 48 -97 48 -185 l0 -90 -66 -135 c-37 -74 -96 -218 -130 -320 l-64 -185 0
-182 c0 -282 10 -278 191 80 118 233 133 258 200 328 77 81 80 88 87 185 6 74
51 173 87 191 42 21 133 16 164 -8 45 -36 69 -95 74 -185 5 -91 -11 -162 -58
-254 -16 -30 -40 -90 -54 -133 -15 -43 -40 -104 -56 -135 -34 -66 -37 -80 -49
-190 -7 -61 -18 -101 -45 -159 -20 -42 -60 -146 -88 -232 -53 -163 -203 -481
-256 -543 -15 -17 -45 -59 -67 -93 -47 -73 -108 -166 -165 -250 -82 -119 -117
-182 -135 -236 -23 -72 -138 -292 -180 -343 -51 -64 -115 -203 -131 -285 -8
-41 -46 -168 -84 -282 -38 -114 -74 -238 -80 -276 -7 -40 -27 -102 -50 -150
-22 -45 -48 -119 -59 -165 -10 -46 -35 -122 -55 -170 -61 -145 -48 -219 21
-114 17 27 45 63 61 80 17 17 40 51 52 76 12 25 62 86 111 136 49 50 96 109
106 132 12 28 88 112 234 260 158 159 224 233 244 272 15 30 53 82 85 115 39
40 75 93 108 160 71 140 183 255 309 319 88 44 135 60 206 71 29 5 55 22 107
71 57 55 79 84 126 177 83 164 123 200 226 201 47 1 61 -3 83 -24 31 -29 60
-81 70 -127 10 -48 -19 -133 -64 -191 -56 -71 -83 -128 -88 -192 -7 -70 7
-113 85 -270 86 -172 110 -161 121 59 7 143 10 151 71 248 23 36 30 59 30 98
0 63 22 140 53 186 46 69 158 72 233 7 68 -60 87 -108 95 -237 5 -83 14 -132
29 -171 16 -40 25 -87 30 -172 9 -155 27 -192 157 -319 54 -53 121 -109 148
-124 28 -16 76 -53 109 -82 123 -114 496 -272 638 -273 26 0 73 -10 105 -22
76 -30 244 -33 286 -5 52 34 31 84 -54 125 -57 27 -208 181 -239 242 -12 25
-36 61 -53 80 -50 57 -126 227 -142 318 -7 43 -21 96 -29 117 -14 32 -16 104
-16 520 l0 483 26 68 c24 64 26 77 21 189 -4 105 -9 133 -41 223 -20 57 -47
125 -61 151 -13 27 -43 104 -67 172 -37 107 -42 134 -41 202 1 71 5 86 49 180
56 118 138 213 218 254 88 45 139 102 177 201 l34 87 0 235 c0 226 -1 237 -24
294 -30 73 -30 109 0 167 19 37 23 63 26 164 2 68 0 126 -6 134 -15 23 -50 2
-107 -64 -113 -131 -129 -145 -168 -145 -49 0 -92 24 -116 63 -29 47 -25 78
21 169 27 54 44 104 50 147 5 36 18 89 28 116 20 54 51 144 81 240 81 257 96
290 164 363 62 66 138 112 186 112 66 0 446 -157 502 -207 10 -9 32 -41 49
-72 18 -31 67 -92 109 -136 90 -93 96 -103 144 -250 29 -91 36 -126 36 -193 0
-62 6 -100 25 -154 24 -70 25 -79 25 -345 0 -251 -2 -278 -21 -331 -11 -31
-24 -95 -29 -142 -9 -91 -107 -405 -156 -503 -34 -66 -100 -258 -109 -317 -4
-25 -18 -80 -31 -123 -16 -53 -24 -102 -24 -152 0 -52 -8 -98 -25 -152 -31
-98 -31 -130 4 -223 21 -56 33 -75 47 -75 29 0 62 59 69 123 3 31 14 80 25
107 10 28 24 69 29 91 17 66 111 254 146 293 18 20 54 79 80 131 31 63 68 117
108 159 33 36 69 85 80 110 25 58 132 165 189 191 24 11 57 20 75 20 41 0 112
-31 154 -68 19 -16 79 -53 134 -82 110 -58 157 -96 185 -151 28 -53 47 -66 68
-45 15 14 17 39 17 169 0 174 -8 206 -66 274 -22 25 -49 65 -61 90 -12 25 -49
75 -83 113 -93 100 -107 146 -103 325 3 126 6 145 28 190 21 40 35 54 80 77
67 33 121 35 190 8 28 -11 62 -20 75 -20 22 0 25 5 25 34 0 18 -7 53 -15 76
-32 89 -5 180 67 227 67 45 170 25 263 -51 22 -18 60 -43 85 -56 60 -30 324
-291 351 -347 27 -57 89 -259 89 -292 0 -34 18 -60 100 -146 73 -76 130 -177
170 -300 29 -90 95 -221 131 -263 16 -18 41 -56 55 -84 35 -69 105 -142 167
-173 64 -32 85 -32 93 -1 8 34 -1 58 -47 116 -22 28 -72 116 -112 197 -72 145
-72 147 -75 239 -4 84 -1 98 24 154 l28 62 109 54 c61 30 119 54 131 54 38 0
120 -47 186 -106 106 -94 163 -105 272 -54 79 38 152 41 193 8 15 -12 38 -44
51 -72 21 -46 24 -65 24 -191 0 -124 -3 -148 -25 -210 -18 -53 -25 -91 -25
-153 0 -155 -110 -429 -219 -546 -31 -34 -70 -85 -85 -113 -22 -39 -40 -57
-80 -79 -70 -38 -200 -166 -231 -228 -27 -53 -32 -105 -13 -124 15 -15 40 -2
101 55 50 46 157 103 194 103 31 0 126 -37 157 -61 14 -11 30 -38 36 -60 23
-84 -26 -161 -145 -228 -36 -20 -112 -86 -196 -167 l-136 -133 -206 -102
c-175 -86 -213 -101 -254 -101 -63 0 -139 37 -208 103 -29 27 -56 49 -62 49
-5 0 -18 -9 -29 -21 -17 -19 -20 -43 -24 -243 l-6 -221 -46 -100 c-25 -55 -51
-118 -58 -140 -7 -22 -33 -84 -57 -138 -47 -102 -56 -154 -34 -181 37 -45 85
-3 150 130 45 92 53 103 93 121 24 12 66 39 93 62 71 59 137 81 240 81 155 0
258 -63 305 -186 19 -51 21 -74 18 -175 l-3 -116 -98 -196 c-53 -107 -115
-218 -136 -245 -21 -27 -48 -66 -59 -88 -11 -21 -78 -95 -149 -164 -127 -124
-129 -126 -272 -195 l-145 -70 -215 0 -216 0 -98 50 c-55 28 -115 66 -135 85
-37 36 -134 227 -147 290 -4 19 -14 51 -23 70 -14 29 -17 92 -22 365 l-5 330
-46 100 c-26 55 -58 125 -72 156 -16 36 -39 68 -68 91 -88 71 -116 72 -98 3 6
-22 14 -114 18 -205 6 -131 12 -179 30 -230 l22 -66 -37 -114 c-45 -142 -104
-262 -141 -288 -55 -39 -139 -75 -282 -122 -98 -32 -147 -53 -149 -64 -2 -8
26 -45 64 -83 112 -114 139 -205 89 -310 -29 -64 -55 -81 -200 -131 l-110 -37
-720 -3 -720 -3 -75 25 c-41 13 -95 27 -120 31 -46 6 -167 43 -255 76 -27 11
-81 24 -120 30 -75 10 -228 78 -368 163 -40 24 -105 57 -143 72 -56 23 -86 45
-161 116 -51 48 -116 99 -144 114 -56 28 -190 156 -235 223 -29 45 -60 53 -87
23 -22 -25 -36 -64 -57 -168 -28 -139 -129 -333 -225 -434 -40 -41 -77 -85
-84 -97 -7 -13 -11 -83 -11 -183 0 -180 -11 -230 -77 -348 -30 -53 -45 -68
-101 -101 -79 -46 -235 -202 -277 -276 -16 -27 -53 -77 -83 -110 -30 -33 -64
-81 -77 -106 -13 -25 -51 -75 -84 -112 -33 -37 -70 -86 -82 -109 -12 -24 -37
-63 -56 -88 -35 -47 -95 -135 -150 -224 -18 -28 -49 -75 -70 -104 -21 -29 -52
-94 -69 -145 -17 -51 -56 -141 -86 -202 -30 -60 -68 -148 -84 -194 l-28 -83
23 -19 c30 -24 61 -24 136 1 90 29 246 54 291 45 28 -5 53 -21 90 -58 44 -44
53 -60 59 -101 7 -47 5 -55 -63 -191 -80 -160 -116 -200 -209 -235 -76 -28
-104 -25 -205 21 -48 22 -98 39 -110 37 -20 -3 -23 -9 -23 -53 1 -37 12 -74
43 -141 23 -51 50 -116 58 -145 23 -75 88 -203 140 -272 24 -32 51 -82 60
-111 15 -49 15 -56 -1 -111 -9 -32 -41 -106 -70 -165 -104 -208 -158 -414
-121 -465 19 -26 39 -14 79 47 50 76 185 206 227 218 100 29 183 -12 237 -118
40 -77 41 -108 9 -216 -14 -44 -28 -103 -31 -130 -8 -59 -173 -394 -235 -476
-22 -30 -55 -80 -73 -109 -24 -42 -50 -67 -104 -103 -50 -34 -81 -63 -99 -94
-15 -26 -48 -59 -76 -79 -28 -18 -66 -57 -85 -87 -47 -70 -85 -109 -159 -163
-53 -39 -66 -55 -93 -116 -20 -44 -53 -94 -85 -128 -91 -98 -105 -132 -115
-287 -6 -102 -10 -118 -48 -197 -23 -48 -47 -115 -54 -149 -6 -35 -22 -98 -35
-141 -40 -129 -28 -224 25 -210 10 3 43 26 73 52 65 59 146 101 192 101 41 0
145 -37 213 -76 62 -35 169 -138 196 -189 18 -33 22 -61 25 -163 4 -108 1
-132 -18 -189 -12 -36 -25 -102 -30 -147 -5 -56 -25 -132 -64 -249 -67 -200
-84 -235 -148 -307 -27 -30 -65 -82 -85 -115 -19 -33 -59 -85 -88 -115 -29
-31 -63 -76 -75 -100 -12 -25 -46 -70 -74 -100 -29 -30 -65 -77 -81 -105 -15
-27 -46 -73 -67 -101 -50 -66 -116 -264 -125 -373 -3 -42 -15 -98 -26 -126
-13 -32 -21 -84 -25 -147 -4 -86 -2 -107 22 -181 27 -84 27 -86 24 -344 l-3
-260 -45 -89 c-24 -48 -61 -109 -81 -134 -20 -26 -46 -64 -57 -86 -11 -21
-104 -123 -206 -226 l-185 -187 -71 -141 c-39 -77 -88 -164 -108 -193 -32 -46
-36 -60 -40 -127 -3 -63 -1 -78 13 -90 15 -13 20 -12 36 10 11 14 39 50 64 82
24 31 55 79 69 107 21 41 36 56 77 77 28 14 79 52 114 84 72 67 199 136 315
170 42 12 96 37 122 57 66 48 152 146 179 201 11 26 50 75 86 110 101 99 173
122 259 83 58 -27 78 -57 123 -194 50 -149 56 -251 20 -339 -18 -45 -23 -83
-29 -248 -6 -159 -11 -205 -28 -252 -14 -37 -22 -91 -25 -160 -4 -73 -11 -119
-27 -158 -12 -30 -24 -86 -27 -125 -3 -38 -16 -105 -29 -148 -13 -43 -24 -101
-24 -130 0 -29 -11 -83 -25 -121 -13 -38 -27 -90 -30 -115 -4 -25 -15 -73 -25
-106 -11 -33 -24 -87 -30 -120 -5 -33 -19 -84 -30 -112 -11 -29 -23 -85 -26
-125 -3 -40 -14 -100 -24 -133 -11 -33 -24 -88 -30 -122 -6 -34 -17 -78 -25
-96 -7 -18 -19 -65 -25 -103 -7 -38 -31 -112 -55 -164 -23 -52 -46 -119 -50
-149 -4 -29 -29 -119 -56 -200 -31 -92 -51 -172 -55 -216 -3 -38 -17 -105 -30
-148 -13 -43 -24 -100 -24 -128 0 -55 -61 -253 -105 -340 -15 -29 -52 -127
-82 -218 -60 -184 -111 -284 -183 -367 -52 -59 -66 -96 -55 -143 12 -56 44
-43 93 39 11 19 42 55 67 80 26 25 58 68 72 95 14 28 51 77 83 110 31 33 67
81 80 105 12 25 48 72 80 105 32 34 71 88 88 120 17 33 48 77 70 99 28 27 48
60 67 112 15 41 44 95 65 120 21 26 46 63 57 83 10 20 31 54 46 77 16 23 46
93 67 156 21 63 52 146 70 184 17 38 43 102 56 142 13 40 39 103 58 140 18 37
41 94 50 127 10 33 33 93 52 133 19 40 46 106 59 147 14 41 76 177 139 302 62
125 117 244 121 263 4 19 36 96 72 170 61 127 99 223 143 365 30 97 60 185 87
255 19 49 26 91 30 170 4 72 13 127 29 177 19 58 24 93 24 181 0 93 4 120 25
176 17 44 25 87 25 127 0 40 9 87 26 137 15 42 30 112 34 157 4 44 17 106 29
137 11 32 21 71 21 88 0 41 120 400 168 502 23 49 42 106 46 138 3 30 17 87
31 125 22 64 25 85 25 237 0 147 3 174 21 220 12 30 24 92 29 144 12 140 31
174 202 350 l144 149 82 248 c55 165 103 290 143 370 48 95 64 139 74 203 19
115 52 175 109 203 113 53 231 -4 266 -128 18 -67 12 -166 -16 -244 -19 -53
-26 -93 -27 -152 -1 -76 1 -85 48 -185 l50 -105 5 -365 5 -365 25 -44 c54 -96
63 -69 70 204 l5 220 46 95 c26 52 50 111 54 130 4 19 41 104 82 189 63 132
76 166 83 230 10 92 -2 207 -30 279 -29 75 -27 171 5 256 14 37 25 79 25 95 0
41 181 584 223 667 19 38 39 90 45 115 18 72 46 130 87 179 20 24 60 89 87
144 44 87 65 115 156 208 72 73 124 117 166 139 39 20 94 65 152 123 84 85 93
97 123 179 40 106 64 127 152 127 43 0 63 -5 84 -22 35 -27 75 -112 75 -158 0
-43 -40 -130 -84 -185 -18 -22 -64 -104 -104 -182 -39 -79 -82 -158 -97 -177
-31 -41 -108 -261 -140 -401 -13 -55 -30 -122 -39 -149 -13 -39 -16 -95 -16
-276 0 -204 2 -233 21 -286 11 -32 24 -103 29 -157 6 -74 14 -111 35 -152 39
-80 50 -72 62 39 3 34 17 90 31 126 20 53 25 89 29 190 4 97 10 141 29 197 14
42 24 95 24 128 0 70 62 259 125 385 37 72 60 102 157 196 110 109 117 114
268 189 l155 77 141 139 c136 134 198 178 250 179 33 0 254 -75 324 -110 80
-40 180 -135 221 -209 17 -31 57 -83 89 -117 97 -101 234 -409 269 -604 5 -30
17 -75 26 -100 12 -30 18 -85 21 -165 3 -113 6 -128 60 -295 53 -165 81 -220
110 -220 33 0 39 43 42 287 l4 243 99 201 c79 160 101 215 109 268 5 36 20 91
32 121 20 49 23 72 22 205 0 139 -2 155 -27 218 -15 37 -27 81 -27 98 0 17
-11 63 -25 102 -13 40 -28 99 -34 133 -5 33 -17 78 -26 100 -12 26 -18 69 -19
129 -2 161 26 237 106 280 71 39 108 32 275 -51 121 -61 149 -79 225 -153 51
-48 103 -109 123 -145 20 -33 51 -80 70 -104 60 -75 65 -109 65 -450 0 -296
-1 -306 -24 -375 -33 -97 -40 -141 -27 -166 25 -47 86 -12 129 75 11 22 37 60
58 85 39 47 174 311 174 341 0 30 50 140 81 180 35 43 119 88 166 88 41 0 100
-24 131 -53 13 -12 39 -51 57 -87 37 -74 115 -307 115 -343 0 -14 22 -92 49
-175 27 -82 53 -171 57 -198 4 -27 18 -80 30 -118 13 -38 24 -92 24 -120 0
-28 11 -89 24 -136 14 -47 32 -114 40 -150 9 -36 23 -90 31 -120 9 -31 15 -96
15 -151 0 -70 6 -115 20 -161 12 -34 25 -102 30 -150 7 -71 16 -102 51 -173
23 -48 62 -113 86 -145 48 -65 69 -116 79 -193 3 -29 26 -95 50 -148 25 -53
51 -130 59 -172 8 -42 22 -94 31 -114 10 -23 18 -78 21 -138 3 -65 13 -127 29
-178 17 -55 24 -102 24 -157 0 -57 7 -101 25 -157 24 -76 25 -86 25 -373 0
-288 -1 -297 -25 -365 -24 -68 -25 -79 -25 -335 0 -211 -3 -277 -16 -320 -20
-70 -30 -170 -17 -170 29 0 121 169 129 236 3 27 16 81 29 119 12 39 27 97 33
130 6 33 19 85 31 115 12 33 20 80 21 116 0 43 8 83 27 130 27 68 27 74 29
304 2 223 3 238 25 290 24 54 24 60 24 395 l0 340 -27 77 c-16 42 -28 89 -28
105 -1 15 -10 53 -21 83 -11 30 -24 96 -28 147 -7 77 -15 104 -45 162 -50 97
-113 301 -119 386 -3 39 -15 94 -26 123 -28 71 -29 201 -2 269 10 26 23 78 29
116 13 81 52 171 82 187 12 6 45 14 73 17 43 4 58 1 87 -19 59 -39 74 -84 81
-239 l6 -137 43 -63 c23 -35 80 -142 126 -237 103 -211 126 -228 144 -106 4
32 19 84 32 114 22 52 23 67 23 265 0 199 -1 213 -24 265 -16 36 -26 85 -31
145 -4 53 -15 105 -25 125 -10 19 -20 72 -25 124 -4 50 -16 110 -25 133 -19
48 -16 94 9 162 15 39 16 96 14 515 -3 459 -4 472 -25 516 -11 25 -26 77 -32
115 -6 39 -20 94 -31 123 -19 48 -20 75 -20 367 l0 315 46 92 c25 50 52 116
60 145 17 67 48 128 85 171 35 40 64 96 72 140 4 18 34 91 67 162 33 70 60
135 60 144 0 23 -29 20 -87 -9 -62 -31 -116 -88 -167 -175 -21 -36 -50 -79
-65 -96 -23 -28 -48 -68 -103 -168 -15 -26 -18 -58 -18 -198 0 -148 -2 -172
-21 -215 -16 -35 -23 -80 -29 -169 -7 -116 -10 -126 -52 -216 -56 -118 -89
-148 -161 -148 -100 0 -143 53 -171 213 -8 45 -22 99 -30 119 -25 58 -22 242
4 308 11 28 24 81 30 117 6 43 25 100 57 167 44 92 59 113 171 228 67 70 122
134 122 142 0 8 22 44 50 80 89 117 240 461 240 552 0 16 12 61 27 99 24 64
26 85 30 255 3 149 8 195 23 235 10 28 26 74 35 104 9 30 31 84 49 120 18 36
43 98 54 136 12 39 40 101 63 139 35 58 42 80 49 150 5 44 18 106 29 136 14
39 20 80 21 141 0 65 6 103 25 157 26 75 25 129 -3 139 -8 3 -39 -6 -68 -20
-30 -15 -70 -27 -90 -27 -38 0 -100 27 -126 56 -25 28 -58 112 -58 147 0 40
38 123 77 168 17 19 42 57 56 85 29 57 43 68 141 109 99 42 101 46 102 245 2
150 4 172 28 242 23 68 26 92 26 218 0 103 -4 150 -15 177 -9 20 -52 70 -98
114 -146 136 -189 261 -134 383 52 113 107 156 198 156 70 0 99 -20 139 -99
56 -111 79 -109 131 14 45 106 49 168 19 247 -11 29 -25 84 -31 122 -6 38 -20
89 -30 113 -10 25 -19 57 -19 72 0 36 92 224 134 276 18 22 43 60 55 84 12 23
49 72 82 108 121 129 131 221 34 313 -20 19 -52 68 -72 108 -19 40 -41 76 -48
79 -8 2 -35 -3 -60 -12 -64 -25 -141 -16 -171 18 -30 35 -67 136 -61 167 3 14
24 77 47 140 23 63 45 128 51 145 5 17 9 210 9 437 l0 408 25 66 c22 60 25 81
25 210 0 120 3 152 20 198 32 85 68 126 150 171 78 43 173 137 185 182 9 38
-20 62 -88 73 -76 12 -142 42 -163 76 -23 35 -23 123 0 158 9 15 52 42 104 67
48 22 110 58 137 79 28 21 86 56 130 78 58 29 85 49 99 73 11 19 39 57 62 85
28 35 45 69 54 105 18 79 111 270 152 310 21 21 114 74 249 141 117 58 347
172 509 253 162 81 333 159 380 175 47 15 118 44 158 64 48 24 96 40 140 45
37 5 85 16 107 26 22 9 67 25 100 35 85 26 150 48 225 75 36 13 79 27 95 31
52 11 189 81 235 119 24 20 87 59 140 85 53 26 115 64 139 85 24 20 60 43 79
51 19 8 52 30 73 49 22 19 60 45 86 57 25 12 74 47 107 79 34 31 81 67 106 79
25 13 85 62 135 110 50 48 112 97 139 110 64 31 198 165 237 239 17 31 40 73
52 93 36 61 6 110 -56 94 -12 -3 -62 -44 -112 -92 -91 -87 -116 -105 -189
-130 -65 -23 -219 -121 -285 -181 -46 -41 -104 -76 -239 -142 -196 -98 -194
-97 -307 -122 -91 -20 -177 -42 -285 -71 -41 -12 -112 -25 -158 -30 -45 -4
-106 -18 -134 -29 -45 -17 -73 -20 -200 -20 -173 1 -171 1 -413 124 -143 73
-169 91 -251 168 -50 48 -111 97 -135 109 -24 13 -57 33 -74 45 -16 12 -71 37
-121 55 -90 31 -95 32 -230 28 -122 -3 -145 -6 -183 -27 -61 -32 -91 -67 -91
-106 0 -43 13 -51 90 -57 97 -8 187 -57 298 -163 97 -92 122 -131 122 -193 0
-73 -82 -157 -186 -188 -34 -10 -103 -14 -253 -14 -193 0 -210 2 -276 25 -57
20 -89 25 -173 25 -96 0 -112 -3 -230 -44 -70 -24 -142 -52 -160 -61 -18 -9
-51 -19 -72 -22 -47 -7 -189 20 -287 53 -39 13 -77 24 -83 24 -6 0 -59 22
-118 49 -64 30 -129 53 -162 57 -30 4 -77 15 -105 25 -27 10 -77 22 -110 28
-33 5 -128 32 -212 60 -108 36 -167 51 -206 51 -31 0 -83 10 -125 25 -66 23
-85 25 -255 25 -166 0 -190 -2 -253 -24 -38 -12 -91 -26 -119 -30 -30 -4 -111
-36 -200 -79 -147 -70 -152 -71 -242 -75 -104 -5 -176 14 -223 58 -75 70 -94
288 -35 406 27 53 36 62 90 88 82 39 189 42 287 7 64 -22 69 -23 93 -7 44 29
34 48 -94 182 -53 56 -108 118 -123 137 -20 25 -48 42 -100 62 -68 25 -86 28
-258 32 -166 3 -190 6 -235 27 -99 45 -138 100 -185 256 -31 104 -92 168 -202
209 -43 17 -108 35 -144 41 -80 13 -140 36 -274 106 -92 49 -119 70 -221 170
l-116 115 -77 157 c-57 117 -80 177 -91 235 -16 85 -37 135 -62 144 -27 11
-33 -19 -33 -183 0 -225 -23 -294 -114 -335 -63 -28 -113 -25 -173 14 -28 17
-79 50 -113 72 -35 22 -102 77 -150 122 -75 71 -105 91 -236 156 -83 41 -172
92 -200 113 -27 21 -92 60 -144 87 -81 41 -112 65 -208 160 l-113 112 -190
378 c-196 391 -217 423 -306 481 -46 29 -245 91 -267 83 -28 -11 -18 -44 68
-215 46 -92 89 -184 95 -204 16 -50 5 -103 -31 -144 -26 -29 -37 -34 -75 -34
-24 0 -56 6 -71 14 -15 8 -77 66 -139 128 -106 107 -115 120 -178 247 -37 74
-83 182 -103 240 -35 105 -36 108 -41 316 l-6 210 -31 45 c-17 25 -52 87 -78
138 -40 79 -64 111 -160 210 -66 68 -122 136 -135 163 -29 63 -210 238 -282
274 -39 20 -108 81 -249 220 -121 119 -212 201 -240 215 -25 13 -63 37 -85 55
-64 52 -202 116 -262 122 -51 6 -53 5 -53 -19z m6181 -12282 c35 -25 95 -65
152 -101 18 -11 43 -41 57 -66 14 -25 40 -64 58 -86 71 -90 89 -179 52 -260
-10 -23 -48 -76 -84 -117 -36 -41 -76 -96 -90 -123 -13 -26 -43 -66 -66 -88
-56 -54 -76 -88 -111 -192 -16 -48 -45 -112 -65 -141 -19 -29 -46 -85 -60
-124 -14 -39 -59 -136 -99 -217 -41 -80 -91 -193 -111 -251 l-37 -105 -6 -220
-7 -220 -47 -130 c-46 -127 -58 -202 -38 -234 13 -20 39 -7 59 30 9 17 34 52
55 76 21 25 47 64 59 86 11 23 54 77 94 119 94 99 103 125 80 245 -16 82 -16
93 -1 158 9 38 40 120 69 181 59 123 77 138 167 138 59 0 115 -35 160 -100 42
-61 48 -114 20 -188 -32 -85 -30 -237 4 -336 14 -42 25 -96 25 -126 0 -30 12
-89 27 -136 48 -150 29 -239 -75 -350 -51 -53 -84 -77 -165 -119 -56 -28 -121
-67 -145 -86 -54 -44 -296 -168 -345 -177 -83 -16 -229 90 -290 210 -31 62
-48 76 -84 72 -42 -5 -53 -37 -53 -160 0 -135 -21 -197 -87 -262 -50 -50 -86
-62 -160 -53 -31 3 -54 13 -72 31 -22 23 -26 35 -25 84 0 31 4 85 9 119 9 72
-1 93 -44 93 -20 0 -45 -18 -96 -71 -39 -39 -97 -86 -130 -106 -33 -19 -85
-58 -115 -87 -70 -66 -203 -132 -308 -152 -42 -8 -100 -22 -129 -31 -43 -13
-59 -14 -90 -5 -73 22 -98 46 -127 116 -31 80 -33 128 -5 198 11 29 25 82 30
118 5 35 26 101 45 145 55 122 102 261 118 348 11 57 33 115 79 210 36 73 72
159 82 192 21 75 45 121 101 197 66 90 59 97 -44 45 -53 -27 -111 -80 -351
-320 -204 -204 -296 -303 -316 -340 -19 -35 -100 -126 -244 -272 -146 -149
-225 -236 -242 -270 -20 -40 -36 -55 -79 -77 -29 -16 -67 -28 -84 -28 -47 1
-107 32 -170 89 -31 28 -63 51 -71 51 -8 0 -24 -9 -36 -21 -20 -20 -21 -28
-17 -208 5 -212 14 -249 86 -340 48 -61 57 -86 49 -143 -7 -54 -46 -92 -122
-119 -52 -18 -78 -20 -196 -17 l-136 3 -184 92 c-101 51 -198 101 -216 112
-24 15 -48 52 -98 150 -75 149 -95 177 -118 168 -8 -3 -23 -32 -32 -64 -37
-126 -73 -163 -160 -163 -69 0 -102 22 -133 88 -25 53 -27 68 -30 218 -3 153
-2 164 22 221 45 108 43 238 -5 349 -45 101 -3 305 69 332 51 20 83 23 123 12
72 -20 112 -68 199 -240 44 -87 90 -171 103 -186 13 -16 31 -43 40 -59 8 -17
24 -38 35 -48 33 -30 49 -2 57 98 10 113 -1 214 -31 293 -16 42 -24 86 -24
126 -1 36 -9 83 -21 116 -11 30 -29 82 -39 115 -51 159 -65 196 -103 275 l-42
85 -5 435 c-3 239 -2 446 2 459 5 13 7 25 5 27 -2 2 -32 -24 -68 -57 -74 -69
-130 -99 -183 -99 -40 0 -101 27 -128 56 -25 28 -58 112 -58 147 0 63 52 147
146 237 80 77 104 93 239 160 l149 75 196 3 c129 2 208 -1 235 -8 22 -7 100
-42 174 -79 l135 -66 100 0 101 0 240 122 c132 66 265 129 295 138 30 9 72 23
93 31 51 19 104 17 153 -5 78 -35 154 -134 154 -200 0 -41 -64 -231 -105 -311
-19 -36 -39 -94 -45 -130 -6 -36 -41 -153 -76 -260 -55 -165 -71 -204 -110
-255 -25 -33 -55 -78 -66 -100 -12 -22 -35 -58 -53 -80 -18 -22 -40 -55 -50
-74 -10 -19 -39 -58 -65 -85 -62 -66 -69 -90 -35 -112 34 -22 87 -7 146 42 24
20 66 47 93 61 71 35 577 537 613 608 14 27 41 67 59 90 19 22 57 85 85 140
28 55 60 110 70 123 10 13 25 47 35 75 40 124 65 147 159 147 82 0 169 -50
283 -163 90 -89 135 -154 177 -257 15 -38 18 -69 16 -200 -2 -205 8 -272 59
-379 48 -99 69 -128 82 -109 4 7 8 23 8 35 0 12 14 57 32 100 30 74 32 87 38
248 5 143 9 176 25 205 16 29 20 59 23 173 2 76 1 150 -3 165 -4 15 -62 83
-134 157 -131 133 -171 190 -171 245 0 72 68 163 154 208 47 24 64 26 221 32
139 5 179 10 220 27 28 11 83 26 123 32 41 6 86 18 101 26 16 8 50 19 77 26
62 15 95 32 138 69 51 45 86 60 142 60 38 0 60 -6 85 -24z"/>
<path d="M24716 33558 c-35 -35 -99 -95 -142 -134 -50 -45 -91 -92 -109 -125
-15 -30 -43 -72 -61 -94 -17 -22 -41 -58 -52 -80 -11 -22 -34 -58 -52 -80 -42
-52 -277 -526 -312 -630 -19 -54 -42 -98 -73 -135 -31 -38 -52 -76 -66 -123
-33 -112 -54 -151 -117 -218 -32 -35 -68 -82 -80 -104 -11 -22 -34 -58 -52
-80 -18 -22 -41 -58 -52 -79 -11 -22 -41 -68 -67 -102 -25 -34 -59 -83 -76
-109 -16 -26 -48 -76 -71 -111 -49 -79 -138 -171 -181 -190 -69 -30 -160 -8
-187 45 -9 16 -16 54 -16 84 0 61 -16 83 -51 72 -35 -11 -186 -174 -218 -235
-19 -35 -66 -90 -124 -147 -85 -82 -101 -94 -162 -112 -37 -12 -78 -21 -91
-21 -57 0 -110 -81 -129 -195 -3 -22 -17 -75 -30 -117 -23 -73 -24 -92 -26
-338 -1 -282 1 -290 52 -290 33 0 44 16 52 83 9 66 51 151 82 165 14 7 52 12
84 12 69 0 104 -22 132 -84 23 -50 24 -82 3 -131 -8 -21 -19 -75 -24 -121 -5
-45 -20 -119 -34 -164 -23 -70 -26 -99 -26 -215 0 -111 3 -136 16 -150 11 -10
25 -14 38 -11 92 27 166 25 202 -5 44 -37 54 -97 29 -189 -10 -39 -15 -108
-15 -237 0 -200 -13 -264 -65 -313 -40 -37 -121 -40 -188 -5 -30 15 -65 25
-78 23 -45 -6 -50 -33 -47 -308 l3 -255 45 -129 c41 -120 48 -134 107 -197 74
-82 103 -134 103 -190 0 -33 -6 -47 -33 -74 -49 -49 -93 -54 -165 -19 -49 25
-62 38 -90 89 -22 39 -78 105 -162 190 -101 101 -135 143 -157 190 -27 60 -27
61 -25 250 3 201 6 215 73 400 37 103 70 228 67 253 -5 40 -35 40 -56 0 -9
-18 -101 -118 -204 -223 -111 -113 -188 -200 -192 -215 -2 -14 -7 -56 -11 -93
-10 -117 -56 -187 -130 -201 -61 -12 -111 10 -185 79 -37 35 -89 75 -116 88
-104 54 -214 203 -214 290 0 39 28 103 72 164 l33 45 2 426 2 427 29 40 c18
27 41 45 68 54 37 13 44 12 80 -5 45 -22 80 -69 94 -128 23 -90 45 -122 180
-258 116 -118 140 -138 167 -138 20 0 33 6 37 17 5 11 -24 82 -81 197 l-88
180 -3 302 -3 301 27 69 c25 63 27 82 29 224 2 138 5 161 26 210 21 49 23 70
24 205 l0 150 -45 95 c-37 78 -60 111 -131 185 -48 50 -98 114 -113 143 -15
29 -66 94 -114 145 -92 96 -124 149 -187 311 -26 66 -36 82 -55 84 -39 6 -50
-22 -50 -121 0 -68 6 -106 24 -160 14 -40 28 -94 32 -122 4 -27 15 -72 25 -98
23 -59 24 -98 3 -140 -50 -99 -151 -134 -247 -86 -55 27 -521 489 -549 544
-11 22 -39 65 -63 95 -23 30 -79 128 -124 218 -88 176 -113 233 -142 327 -10
33 -34 107 -53 164 -19 57 -38 124 -41 150 -4 25 -15 73 -26 106 -13 41 -20
98 -23 181 -4 138 -27 214 -66 214 -23 0 -27 -8 -64 -135 -36 -124 -36 -251
-1 -355 21 -60 25 -93 25 -180 0 -66 6 -126 15 -156 18 -59 19 -117 4 -147 -7
-12 -34 -45 -60 -74 -58 -61 -59 -73 -23 -187 50 -156 76 -221 110 -271 18
-27 51 -89 73 -136 39 -82 41 -92 41 -180 0 -124 -23 -173 -129 -283 -62 -64
-90 -103 -132 -186 l-54 -105 -3 -384 c-2 -230 1 -388 6 -393 14 -14 58 18 70
50 6 15 18 52 26 82 24 83 56 132 105 159 105 58 227 2 261 -118 21 -74 -116
-407 -230 -561 -61 -82 -92 -181 -72 -225 11 -23 17 -26 40 -21 74 18 159 18
191 2 57 -30 74 -99 46 -190 -8 -27 -15 -73 -15 -102 0 -30 -11 -87 -25 -130
-23 -70 -25 -92 -25 -253 0 -135 3 -182 14 -196 10 -14 32 -21 85 -26 56 -5
77 -11 98 -30 33 -31 63 -101 63 -149 0 -22 -29 -125 -66 -232 -36 -106 -74
-229 -84 -273 -9 -44 -27 -112 -39 -152 -19 -62 -22 -90 -19 -195 l3 -123 38
-54 c63 -90 69 -129 65 -394 -3 -211 -5 -236 -24 -277 -29 -60 -63 -90 -113
-97 -85 -12 -169 46 -215 146 -17 39 -21 73 -26 216 -5 163 -7 173 -34 225
-66 127 -76 168 -76 325 0 79 -4 155 -10 169 -11 30 -40 34 -80 11 -14 -8 -48
-14 -77 -15 -66 0 -104 30 -132 106 -49 131 -19 218 128 369 65 67 102 114
111 139 19 58 8 217 -20 286 -19 48 -20 60 -10 95 6 22 27 63 46 92 38 56 42
98 12 117 -15 9 -28 1 -80 -51 -69 -68 -98 -83 -161 -83 -66 0 -100 27 -131
104 -34 87 -34 140 3 219 42 92 92 135 172 149 95 17 96 18 74 135 -10 54 -31
134 -48 178 -26 68 -41 91 -103 155 -83 86 -108 134 -128 247 -10 55 -28 104
-61 168 -79 151 -95 202 -95 310 0 114 22 182 80 248 41 47 130 217 130 249 0
26 38 115 70 163 15 22 29 48 33 57 11 30 -13 76 -51 99 -57 34 -92 70 -118
121 -29 57 -30 102 -4 159 13 30 20 66 20 111 0 47 7 87 24 130 13 35 27 86
30 114 4 27 16 77 27 109 25 73 21 105 -25 199 -19 39 -46 105 -59 146 -14 41
-42 111 -64 155 l-38 80 0 170 0 170 68 139 c79 161 90 196 59 196 -20 0 -69
-35 -105 -75 -29 -32 -207 -395 -222 -455 -8 -30 -15 -72 -15 -95 0 -22 -11
-75 -25 -118 -14 -43 -25 -89 -25 -103 0 -43 -80 -276 -122 -354 -22 -41 -63
-98 -89 -127 -40 -42 -49 -59 -49 -87 0 -31 6 -40 54 -75 95 -70 120 -182 63
-285 -29 -53 -94 -90 -157 -90 -33 1 -67 12 -127 42 -66 33 -93 42 -135 42
l-52 0 -266 -264 c-178 -178 -280 -271 -310 -286 -31 -15 -155 -131 -400 -375
-195 -194 -366 -358 -379 -365 -33 -17 -112 -15 -147 3 -36 19 -84 69 -118
125 -30 48 -53 62 -67 41 -5 -8 -8 -99 -7 -205 l3 -190 42 -80 c57 -109 61
-139 30 -208 -17 -37 -35 -60 -56 -70 -33 -18 -106 -21 -144 -7 -46 18 -132
108 -172 181 -24 44 -50 77 -67 86 -34 17 -33 17 -52 -2 -22 -21 -23 -281 -2
-322 22 -41 135 -147 182 -171 23 -11 73 -25 110 -31 103 -16 173 -54 201
-110 29 -59 28 -94 -5 -154 -23 -43 -38 -55 -107 -90 l-80 -41 3 -90 c3 -61
12 -113 28 -161 21 -61 24 -89 24 -211 0 -102 -4 -152 -16 -184 -8 -24 -24
-82 -34 -129 -10 -47 -25 -110 -34 -140 -8 -30 -22 -84 -30 -120 -9 -36 -23
-90 -31 -120 -10 -35 -15 -99 -15 -180 0 -123 -1 -129 -44 -255 l-45 -128
-123 -125 c-114 -115 -130 -128 -223 -173 -67 -32 -123 -52 -170 -59 -81 -12
-303 -117 -395 -186 -104 -78 -185 -92 -277 -49 -56 25 -84 61 -105 127 -10
34 -8 43 20 101 47 95 117 156 256 223 73 35 122 65 134 82 11 15 41 73 67
129 56 119 80 138 170 131 42 -4 61 -12 97 -41 25 -20 52 -37 61 -37 22 0 37
31 37 77 0 22 13 77 30 123 20 58 30 104 30 146 0 41 8 84 25 128 14 37 25 82
25 101 0 19 12 65 27 102 26 65 27 76 27 258 1 180 0 192 -21 225 -46 72 -83
156 -83 190 0 45 37 123 83 178 20 24 45 62 55 85 25 56 33 62 138 96 95 30
120 55 67 66 -69 14 -113 29 -181 61 -77 37 -147 54 -217 54 -55 0 -157 51
-173 85 -22 48 -14 108 24 189 33 69 37 87 43 194 9 141 29 187 118 273 60 58
177 128 248 149 37 11 47 9 104 -14 76 -33 97 -28 111 25 22 81 -3 176 -69
258 -65 81 -100 184 -83 247 26 95 52 135 106 160 28 13 65 24 81 24 37 0 116
-39 173 -85 61 -49 133 -68 247 -63 110 4 135 18 135 78 0 47 -28 84 -88 114
-80 41 -167 138 -224 251 -28 55 -64 115 -81 134 -16 19 -53 82 -81 140 l-51
105 0 151 0 150 41 85 c23 47 45 96 49 110 16 50 55 88 108 106 36 12 67 33
104 71 47 48 64 73 48 73 -3 0 -29 -17 -58 -38 -29 -21 -69 -49 -89 -63 -21
-13 -38 -27 -38 -31 0 -3 -46 -42 -103 -86 -162 -125 -227 -207 -227 -287 0
-11 -19 -75 -42 -143 -48 -142 -90 -200 -173 -238 -60 -29 -97 -30 -150 -5
-48 22 -69 44 -91 96 -46 114 -48 116 -139 120 -89 4 -126 39 -127 122 0 105
122 282 237 340 31 16 104 79 195 168 80 78 163 151 185 163 47 23 66 43 93
97 25 50 127 148 174 168 52 22 106 74 135 131 14 28 40 67 58 87 36 40 154
278 162 327 6 35 -3 40 -40 21 -12 -6 -116 -105 -232 -219 -125 -124 -227
-216 -253 -229 -23 -12 -71 -47 -105 -79 -37 -33 -105 -79 -164 -109 -55 -29
-117 -67 -139 -84 -52 -41 -149 -90 -256 -128 -122 -43 -135 -50 -215 -131
-56 -56 -83 -94 -125 -177 -58 -114 -96 -156 -208 -228 -177 -114 -200 -124
-540 -236 l-335 -111 -85 7 c-124 11 -136 9 -185 -26 -56 -40 -123 -49 -175
-22 -43 22 -77 89 -91 177 -14 89 -17 96 -45 96 -38 0 -63 -35 -144 -207 l-75
-158 0 -85 c0 -64 6 -99 23 -143 28 -74 28 -129 -2 -192 -30 -64 -44 -76 -150
-126 -111 -52 -150 -50 -234 7 -43 30 -64 53 -90 104 -39 74 -59 100 -78 100
-23 0 -44 -45 -59 -126 -8 -43 -23 -108 -35 -142 -25 -80 -25 -127 0 -199 11
-32 20 -73 20 -93 0 -47 -64 -177 -124 -255 -93 -119 -85 -170 29 -177 75 -5
106 -26 137 -97 26 -56 19 -88 -36 -180 -28 -47 -46 -91 -50 -122 -4 -26 -13
-64 -22 -84 -8 -20 -20 -62 -25 -93 -6 -32 -21 -92 -35 -135 -22 -73 -24 -93
-24 -303 l0 -224 36 -113 c42 -130 55 -157 100 -213 37 -45 73 -119 74 -149 0
-11 -11 -43 -24 -72 -27 -57 -50 -73 -156 -108 -45 -15 -69 -29 -78 -46 -10
-18 -12 -77 -10 -235 l3 -211 68 -137 c82 -169 86 -199 31 -303 -20 -37 -58
-93 -85 -125 -51 -59 -69 -93 -69 -134 0 -13 -10 -51 -21 -85 -22 -62 -22 -92
-3 -222 6 -41 2 -56 -25 -112 -42 -85 -73 -121 -130 -149 -25 -13 -76 -53
-112 -88 -52 -51 -70 -77 -84 -119 -10 -30 -36 -94 -58 -144 -37 -81 -41 -100
-45 -185 -3 -69 0 -100 10 -113 18 -24 39 -14 62 26 35 61 91 109 181 154 50
25 102 49 118 54 69 20 194 -56 236 -144 35 -73 29 -106 -51 -271 -71 -147
-72 -150 -76 -243 -4 -81 -1 -104 24 -180 33 -106 35 -175 4 -258 -18 -46 -24
-92 -29 -200 -8 -161 -29 -223 -85 -252 -39 -20 -109 -20 -158 1 -49 21 -63
20 -87 -5 -29 -31 -43 -101 -46 -224 -1 -86 -7 -126 -26 -180 -23 -68 -24 -79
-24 -370 0 -289 1 -302 23 -353 40 -95 23 -185 -52 -277 -43 -52 -103 -180
-150 -317 -36 -105 -36 -108 -36 -270 l0 -163 -50 -146 c-27 -81 -52 -166 -56
-190 -3 -24 -17 -79 -30 -122 -23 -76 -24 -88 -24 -412 0 -324 1 -336 24 -412
13 -43 27 -96 30 -118 4 -22 15 -67 26 -100 10 -33 21 -103 23 -155 4 -63 14
-121 31 -173 26 -77 26 -80 26 -412 0 -332 0 -336 -25 -407 -43 -124 -27 -224
27 -165 32 35 176 327 204 412 13 39 30 88 38 110 12 32 15 94 16 318 0 271
-1 279 -25 349 -24 68 -25 82 -25 299 0 208 2 233 21 285 44 116 147 187 274
188 92 0 150 -26 231 -104 34 -33 67 -60 72 -60 30 0 42 33 43 118 2 191 -5
221 -67 298 -67 82 -139 237 -138 294 1 45 153 510 195 596 28 59 104 87 172
65 45 -15 65 -39 97 -114 31 -75 46 -80 137 -42 90 39 124 33 304 -56 187 -92
206 -111 299 -296 39 -77 77 -143 84 -146 42 -16 52 90 17 182 -11 29 -23 78
-27 109 -8 69 -49 176 -99 257 -20 33 -50 89 -67 125 -17 36 -49 86 -70 111
-61 73 -78 130 -78 262 l0 112 50 103 c27 56 65 122 83 145 19 23 42 58 52 77
9 19 34 55 55 80 20 25 47 65 60 90 12 25 28 52 36 61 23 25 75 161 80 209 3
25 17 84 31 133 21 71 24 92 15 112 -16 35 -28 31 -58 -17 -15 -24 -40 -58
-55 -76 -16 -18 -41 -56 -55 -84 -36 -71 -106 -143 -186 -189 -37 -22 -94 -64
-126 -94 -64 -59 -95 -75 -147 -75 -73 0 -115 34 -141 112 -15 46 -15 53 1 96
12 30 49 78 107 140 141 150 132 115 138 537 l5 360 52 107 c54 113 77 137
153 158 68 18 151 -20 195 -90 14 -23 40 -45 67 -58 24 -11 81 -37 127 -58 75
-34 88 -45 118 -91 55 -87 88 -66 87 54 0 42 -6 61 -31 95 -41 57 -137 250
-164 329 -34 102 -13 235 51 316 27 35 25 82 -5 123 -49 66 -45 148 10 208 20
23 75 58 141 92 106 54 110 55 206 58 139 5 177 -14 332 -166 123 -122 155
-170 156 -234 0 -41 -149 -350 -216 -448 -35 -51 -94 -207 -94 -249 0 -10 11
-35 25 -55 74 -108 73 -133 -7 -295 -66 -135 -80 -202 -45 -209 11 -2 23 8 35
30 27 52 143 169 187 189 88 41 160 16 202 -69 25 -51 28 -71 33 -188 5 -131
5 -132 40 -180 30 -42 35 -57 35 -105 0 -46 -5 -63 -30 -97 -16 -23 -40 -56
-53 -73 -28 -40 -41 -91 -52 -191 -10 -105 -41 -164 -100 -195 -56 -28 -99
-29 -173 -3 -73 26 -132 25 -204 -1 -48 -18 -76 -40 -160 -123 -94 -94 -102
-104 -108 -151 -4 -28 -19 -84 -32 -125 -13 -41 -22 -84 -18 -97 13 -53 80
-12 125 76 35 70 96 127 145 137 20 3 58 3 83 -2 26 -5 83 -8 127 -9 74 0 86
3 166 43 97 48 140 52 206 22 46 -20 77 -61 94 -123 15 -56 -23 -133 -111
-222 -78 -79 -90 -103 -90 -180 0 -91 -32 -157 -118 -244 -41 -42 -81 -90 -88
-108 -16 -38 -19 -176 -4 -204 15 -27 36 -24 90 16 65 48 127 75 175 75 75 0
113 17 135 60 28 55 60 73 129 74 73 1 105 -19 137 -87 30 -66 30 -103 -1
-200 -23 -73 -25 -91 -25 -291 0 -194 -2 -218 -22 -272 -20 -53 -22 -85 -28
-334 -6 -254 -8 -279 -29 -329 -12 -31 -25 -91 -30 -140 -5 -47 -16 -104 -25
-126 -10 -22 -22 -81 -27 -132 -5 -51 -16 -107 -23 -125 -8 -19 -21 -69 -30
-113 -8 -44 -22 -97 -31 -118 -8 -21 -20 -79 -25 -130 -5 -51 -18 -121 -30
-155 -17 -56 -20 -90 -20 -273 0 -194 -2 -213 -25 -286 -31 -97 -31 -119 0
-216 14 -43 25 -100 25 -126 0 -55 17 -78 43 -58 16 12 142 248 249 467 31 63
73 167 93 230 20 63 47 143 60 176 13 34 27 86 31 115 3 30 28 119 54 199 33
100 50 169 54 221 3 46 14 96 27 125 19 42 23 75 28 219 l6 170 47 98 c54 113
131 201 218 251 30 17 76 51 102 77 39 37 48 52 48 80 0 37 -16 58 -73 93 -32
20 -66 87 -67 130 0 36 64 230 90 273 23 39 82 58 148 48 36 -5 55 -17 96 -58
52 -52 74 -102 90 -205 3 -18 19 -52 34 -75 16 -23 38 -60 50 -82 32 -64 95
-123 139 -130 21 -4 63 -14 94 -22 100 -27 128 -5 75 58 -13 15 -58 98 -102
184 l-79 158 0 201 0 202 52 107 c29 60 71 129 92 155 69 81 72 151 13 272
-34 68 -42 77 -96 106 -69 38 -85 61 -86 126 0 74 12 94 81 129 93 46 130 40
315 -50 118 -57 159 -82 194 -120 61 -64 87 -78 109 -57 24 25 18 119 -12 192
-14 32 -28 76 -32 96 -9 47 -57 121 -99 153 -17 13 -60 34 -96 48 -98 37 -190
85 -240 127 -25 21 -63 46 -85 58 -46 23 -66 43 -90 92 -10 19 -32 53 -50 75
-38 47 -134 234 -176 344 -25 65 -40 87 -111 158 -120 120 -153 126 -246 39
-90 -83 -159 -103 -237 -67 -85 39 -107 90 -115 276 l-6 140 -49 105 c-43 95
-48 115 -55 202 -7 108 -14 121 -85 162 -76 45 -116 128 -133 281 -6 50 -20
112 -32 139 -25 55 -23 80 14 159 30 62 52 77 120 83 65 6 93 -8 131 -68 52
-83 82 -72 92 34 9 100 -1 131 -62 198 -66 71 -83 121 -63 183 8 27 25 49 46
63 51 35 248 95 335 104 89 8 115 25 151 99 27 57 59 80 121 87 68 7 112 -17
143 -81 35 -69 37 -110 12 -177 -15 -40 -42 -80 -86 -128 -42 -46 -80 -101
-110 -162 -26 -51 -59 -111 -74 -133 -16 -23 -31 -61 -35 -88 -3 -26 -16 -73
-27 -105 -16 -44 -22 -89 -26 -198 -5 -176 -4 -178 115 -187 95 -7 185 -38
213 -74 26 -33 50 -115 50 -169 0 -23 -11 -76 -25 -118 -25 -75 -31 -129 -19
-160 8 -20 147 -127 200 -154 92 -47 162 -151 223 -331 24 -70 49 -123 72
-152 20 -24 46 -61 58 -82 31 -51 73 -80 156 -107 39 -13 108 -42 155 -65 71
-36 100 -58 175 -137 64 -67 103 -118 135 -178 25 -47 52 -86 61 -88 25 -5 31
38 12 99 -11 39 -18 115 -22 279 -8 275 -8 276 -116 326 -41 18 -96 49 -122
69 -26 20 -77 55 -113 78 -55 36 -70 51 -96 105 -46 91 -51 139 -23 219 13 35
38 82 57 103 37 44 160 115 260 151 37 13 70 32 78 45 24 36 0 97 -67 168
l-56 60 -111 6 c-94 6 -119 11 -169 36 -49 24 -62 37 -83 79 -24 48 -25 58
-25 235 0 175 1 188 24 233 28 56 55 77 109 84 60 8 102 -11 169 -77 107 -105
116 -91 123 174 l5 201 100 200 c54 110 110 215 123 233 15 19 54 47 98 68 85
42 130 43 211 3 54 -27 86 -73 104 -154 9 -42 8 -62 -5 -115 -20 -79 -38 -105
-104 -150 -64 -43 -111 -127 -171 -307 -40 -119 -41 -125 -41 -260 0 -149 5
-183 26 -183 20 0 64 70 71 113 3 21 57 141 119 267 109 221 114 230 156 251
52 27 111 28 158 4 57 -28 78 -54 106 -127 14 -37 34 -73 44 -78 10 -6 42 -10
70 -10 61 0 104 -20 124 -58 8 -15 26 -67 41 -115 15 -49 36 -98 47 -109 19
-19 21 -19 37 -4 13 14 16 40 16 154 -1 117 -4 145 -22 188 -12 27 -24 72 -28
100 -4 28 -19 66 -35 89 -43 62 -99 179 -115 242 -18 67 -12 111 23 183 22 43
36 59 72 77 78 39 141 28 230 -39 25 -19 93 -60 152 -92 68 -36 120 -72 140
-96 34 -39 163 -285 173 -330 3 -14 7 -104 8 -200 2 -169 3 -177 31 -238 43
-94 147 -188 250 -226 98 -35 146 -81 200 -191 50 -101 56 -149 26 -210 -24
-50 -61 -79 -123 -96 -31 -8 -49 -7 -90 7 -44 15 -75 39 -199 161 -116 114
-152 144 -170 141 -20 -3 -23 -9 -26 -59 -2 -44 4 -73 28 -133 16 -42 30 -82
30 -89 0 -7 18 -50 40 -95 22 -46 49 -115 61 -154 34 -111 96 -225 159 -294
32 -33 62 -70 68 -80 17 -31 92 -259 92 -279 0 -9 -11 -54 -24 -99 -13 -44
-30 -108 -36 -140 -14 -69 -135 -317 -177 -361 -85 -91 -77 -66 -84 -278 -5
-182 -6 -195 -31 -242 -14 -27 -40 -68 -58 -90 -18 -22 -41 -58 -52 -80 -12
-22 -58 -78 -103 -125 -45 -47 -87 -95 -93 -107 -7 -12 -30 -77 -53 -145 -35
-105 -41 -136 -42 -211 0 -71 3 -91 17 -105 16 -16 19 -16 37 8 65 83 92 120
116 165 44 79 148 181 230 226 132 73 216 63 268 -33 15 -28 54 -80 87 -116
66 -73 82 -99 98 -163 10 -39 8 -54 -14 -124 -31 -99 -42 -220 -24 -254 9 -17
36 -32 91 -51 98 -34 140 -68 197 -157 25 -39 59 -92 77 -118 18 -26 44 -84
59 -129 15 -45 39 -106 54 -136 35 -70 160 -449 160 -485 0 -15 11 -59 24 -98
17 -50 26 -103 29 -172 3 -68 11 -116 25 -150 11 -28 23 -86 27 -130 4 -44 18
-111 31 -149 13 -38 24 -92 24 -121 0 -28 7 -75 16 -105 8 -30 23 -91 33 -135
10 -44 39 -144 64 -222 26 -78 47 -150 47 -160 0 -30 30 -64 74 -84 62 -28 70
-26 63 19 -4 20 -24 91 -46 157 -25 78 -41 146 -44 195 -3 41 -15 99 -26 128
-20 51 -21 70 -21 480 l0 427 25 70 c15 43 25 92 25 127 0 37 9 82 25 125 44
115 43 300 0 384 -8 15 -20 60 -26 101 -12 79 -30 119 -83 185 -19 23 -44 68
-56 99 -20 54 -21 72 -18 323 3 266 3 266 30 324 21 45 35 61 62 72 69 29 145
15 183 -35 6 -8 30 -52 52 -97 23 -44 57 -100 76 -123 20 -23 54 -83 77 -132
44 -96 67 -119 89 -91 10 12 14 52 14 152 0 149 -5 166 -70 246 -48 60 -109
186 -152 315 -37 111 -38 120 -37 245 1 121 4 138 36 235 62 186 86 213 182
213 62 0 94 -22 140 -99 35 -58 52 -75 108 -109 122 -73 149 -113 178 -259 25
-122 70 -230 118 -280 21 -23 51 -62 65 -87 28 -50 79 -99 103 -99 25 0 22 12
-57 255 -16 50 -19 89 -19 227 0 154 2 173 25 234 45 120 34 148 -83 206 -46
24 -101 57 -121 74 -20 17 -54 40 -76 52 -50 25 -68 45 -94 102 -45 99 -22
155 170 423 32 45 57 104 110 260 l69 202 -1 150 c-2 243 -16 256 -101 85 -47
-96 -67 -125 -122 -177 -95 -90 -185 -106 -248 -43 -34 34 -73 157 -64 203 8
42 -10 94 -35 102 -11 4 -52 8 -92 9 -53 1 -87 9 -129 28 -49 23 -61 34 -85
80 -27 51 -28 60 -31 218 -4 186 0 209 57 297 43 67 101 222 101 271 0 18 12
62 27 99 l28 68 0 305 c0 298 -1 306 -24 360 -18 42 -25 83 -30 171 -7 107
-10 123 -46 195 -21 44 -57 104 -81 136 -53 68 -86 140 -86 188 -1 20 13 62
30 96 66 130 189 187 291 134 52 -26 75 -58 101 -136 19 -55 35 -80 102 -150
44 -47 87 -101 96 -122 14 -31 18 -87 23 -362 l5 -325 47 -135 c26 -75 53
-171 62 -214 8 -43 24 -95 36 -115 12 -20 36 -80 54 -134 l32 -99 29 49 c52
86 52 89 53 406 1 274 3 303 22 360 37 112 89 140 213 113 39 -8 89 -17 111
-21 88 -14 177 -72 211 -137 17 -33 18 -101 3 -131 -7 -12 -33 -45 -59 -73
-43 -45 -70 -100 -70 -143 0 -7 -11 -50 -24 -95 -29 -99 -56 -215 -56 -238 0
-9 4 -20 10 -23 12 -8 60 17 85 45 79 88 203 101 259 27 13 -18 32 -59 41 -91
25 -87 16 -165 -39 -322 -52 -149 -57 -205 -26 -284 11 -29 20 -74 20 -106 0
-70 18 -112 73 -171 24 -27 52 -62 60 -80 17 -31 43 -56 106 -96 39 -25 90
-111 121 -201 19 -56 20 -85 20 -438 0 -362 1 -381 21 -436 16 -42 24 -93 29
-197 7 -127 12 -150 47 -250 22 -60 49 -128 61 -151 11 -23 40 -95 64 -160
l42 -119 6 -410 c6 -391 7 -413 28 -467 l22 -58 0 -1359 c0 -1223 2 -1361 16
-1375 36 -36 67 -11 105 86 32 81 33 89 39 278 5 164 9 201 26 235 17 36 20
71 24 320 6 267 7 282 29 329 18 39 25 76 31 165 5 80 14 132 29 169 18 44 21
73 21 192 0 124 3 149 25 212 14 39 25 84 25 99 0 48 122 411 173 517 19 40
38 96 42 125 9 73 70 256 119 357 l41 85 0 165 0 165 -74 145 c-40 80 -87 161
-104 180 -63 72 -113 222 -104 313 6 62 34 91 101 101 81 13 163 -40 212 -135
12 -25 51 -77 86 -115 74 -81 142 -215 157 -310 17 -111 109 -362 163 -449 55
-86 87 -127 97 -121 13 8 -7 183 -28 245 -21 59 -22 80 -20 330 2 250 3 270
25 337 26 77 30 133 13 167 -7 12 -44 56 -83 97 -68 72 -116 158 -116 208 0
23 46 119 74 157 12 16 28 46 36 65 7 19 34 80 59 135 l45 100 7 170 c5 141
10 180 29 230 32 87 24 173 -25 263 -43 79 -68 107 -88 99 -20 -8 -27 -53 -27
-178 0 -123 -23 -204 -66 -238 -34 -27 -100 -35 -149 -19 -35 11 -44 22 -72
77 l-33 64 0 281 c0 273 -1 283 -25 351 -14 39 -27 93 -31 120 -9 86 -13 94
-68 135 -30 22 -97 81 -148 132 -59 58 -117 105 -155 126 -112 59 -159 141
-131 226 16 48 52 76 105 83 68 9 105 -11 200 -108 100 -103 133 -125 163
-109 25 13 27 68 4 113 -9 18 -141 158 -294 312 -259 262 -278 284 -299 342
-20 53 -22 77 -19 170 3 108 3 109 56 216 45 93 57 110 87 123 44 18 96 18
141 -1 42 -17 78 -87 93 -184 6 -35 13 -66 15 -69 7 -7 42 36 62 76 8 19 20
63 25 99 11 80 50 165 84 183 34 18 125 19 157 1 32 -16 70 -86 93 -166 10
-33 32 -89 50 -125 18 -36 38 -84 44 -107 14 -52 2 -90 -84 -268 -98 -200 -99
-286 -5 -389 90 -98 95 -117 95 -372 0 -257 1 -261 68 -238 57 20 141 20 172
0 30 -20 54 -66 89 -174 24 -70 37 -93 92 -152 35 -38 74 -91 88 -117 14 -26
43 -69 65 -96 44 -52 76 -134 69 -175 -3 -15 -14 -61 -26 -102 -76 -275 -76
-262 -1 -521 24 -82 24 -101 0 -170 -18 -49 -20 -87 -22 -341 -1 -157 1 -290
5 -296 14 -22 47 -12 90 28 33 30 50 58 70 114 15 41 47 99 71 130 24 31 64
99 90 151 53 108 72 124 166 132 76 7 127 -18 206 -100 89 -92 103 -138 103
-331 0 -137 -3 -160 -25 -224 -25 -71 -25 -76 -25 -389 l0 -318 40 -118 c47
-137 99 -245 145 -302 18 -22 42 -60 54 -84 12 -23 49 -71 81 -106 32 -35 70
-86 84 -113 14 -28 63 -90 109 -139 46 -48 92 -104 102 -123 9 -19 35 -58 56
-86 48 -62 66 -104 83 -197 8 -39 20 -85 26 -102 52 -131 122 -380 129 -461 7
-71 16 -104 41 -154 26 -51 34 -60 41 -47 22 39 28 200 29 760 l0 598 -26 77
c-14 42 -30 105 -35 140 -11 74 -71 201 -135 282 -52 67 -104 174 -104 216 0
42 33 81 79 95 54 16 99 -6 149 -73 22 -29 84 -98 138 -153 84 -85 106 -115
143 -193 25 -50 52 -94 60 -97 42 -16 54 61 49 315 l-3 185 -52 112 c-29 61
-53 121 -53 132 0 36 39 125 72 165 23 28 59 52 127 84 98 46 115 59 126 102
4 13 18 48 31 76 21 44 33 57 76 78 60 30 87 32 134 10 59 -28 76 -71 84 -203
7 -124 25 -182 63 -203 30 -16 61 25 87 112 43 144 141 191 226 106 39 -39 54
-89 54 -186 0 -52 8 -99 25 -153 14 -43 25 -89 25 -104 0 -34 112 -366 160
-474 21 -47 46 -115 55 -150 9 -35 22 -73 28 -84 6 -11 23 -53 37 -94 26 -78
53 -108 70 -81 15 23 12 55 -10 117 -14 41 -20 83 -20 148 0 70 -6 106 -25
160 -25 69 -25 73 -25 416 0 345 0 347 25 413 20 53 25 85 25 156 0 74 5 101
27 157 l27 68 6 385 5 385 33 65 c40 77 108 275 118 343 4 31 0 80 -11 141
-21 113 -16 155 26 190 26 22 41 26 93 26 78 0 103 -17 137 -92 22 -48 24 -66
24 -198 -1 -130 -3 -151 -24 -200 -21 -48 -25 -78 -31 -225 -6 -135 -12 -181
-29 -225 -27 -74 -28 -185 0 -260 64 -177 79 -235 80 -325 2 -125 8 -150 39
-150 17 0 30 10 44 35 18 30 21 56 24 181 4 135 2 151 -22 221 -33 95 -34 166
-2 233 35 75 56 90 131 90 56 0 68 -4 106 -33 24 -18 57 -41 73 -50 73 -44 93
-61 116 -102 22 -40 25 -59 28 -165 3 -109 1 -126 -22 -188 -35 -90 -35 -143
-1 -159 20 -9 31 -8 50 2 24 13 75 100 75 128 0 7 14 47 31 88 52 125 147 186
242 155 77 -26 103 -99 73 -204 -20 -70 -20 -116 0 -145 9 -13 54 -41 101 -63
50 -23 106 -58 134 -84 26 -24 58 -47 71 -50 12 -2 45 -9 71 -15 53 -11 117
-43 188 -93 26 -17 60 -40 77 -49 64 -34 88 -111 57 -184 -11 -26 -27 -40 -67
-59 -29 -14 -67 -25 -84 -25 -47 0 -308 132 -374 189 -80 69 -85 71 -215 71
-180 0 -193 -18 -85 -125 87 -87 110 -139 110 -255 0 -141 -55 -235 -167 -287
-79 -37 -109 -38 -186 -9 -85 33 -140 34 -161 5 -8 -12 -12 -29 -9 -38 3 -9
44 -55 92 -104 99 -100 114 -107 246 -107 118 1 158 11 293 76 171 81 240 75
294 -29 19 -36 23 -65 29 -207 6 -139 11 -177 33 -243 31 -91 34 -191 11 -282
-17 -65 -81 -188 -130 -250 -17 -22 -51 -78 -74 -125 -24 -47 -54 -100 -68
-118 -14 -19 -36 -64 -50 -100 -13 -37 -33 -85 -45 -107 -11 -22 -30 -69 -43
-105 -12 -36 -32 -91 -44 -122 -13 -35 -21 -81 -21 -118 0 -37 -8 -80 -21
-112 -11 -29 -24 -92 -29 -141 -5 -48 -19 -118 -32 -155 -21 -62 -23 -82 -23
-282 1 -209 1 -217 28 -286 19 -50 27 -90 27 -135 0 -35 5 -71 10 -79 17 -26
30 8 30 83 0 54 6 79 27 120 24 46 27 67 33 192 4 77 13 154 20 170 7 17 21
57 31 90 43 147 91 270 154 395 77 156 137 226 248 291 99 59 147 145 147 263
0 36 20 112 67 256 58 175 74 213 113 265 25 33 67 103 94 155 27 52 61 110
77 128 16 18 52 78 79 132 27 54 63 114 78 132 16 18 39 53 51 77 13 23 49 71
81 106 32 35 70 85 84 112 13 26 64 87 113 135 69 68 107 96 178 132 50 25
117 51 150 57 99 18 110 28 171 151 48 99 54 118 54 174 0 40 -8 84 -20 116
-26 68 -25 101 1 156 18 37 32 49 81 72 32 15 84 31 116 35 57 7 58 8 179 127
82 82 132 139 153 179 62 117 153 174 275 173 57 0 83 -6 139 -32 73 -34 96
-39 96 -21 0 7 -15 52 -32 102 -26 70 -45 103 -86 149 -28 32 -58 74 -66 93
-8 19 -42 64 -76 100 -67 72 -110 155 -110 211 0 103 114 179 190 127 35 -24
46 -39 85 -115 37 -72 64 -87 85 -49 6 12 10 108 10 244 0 215 -1 226 -26 298
-36 104 -31 157 28 281 56 115 92 158 160 192 60 30 89 32 148 11 57 -20 67
-19 95 10 25 24 25 26 25 212 -1 160 -4 196 -20 243 -11 30 -20 66 -20 80 0
14 21 68 47 120 l48 95 3 190 3 190 75 155 c80 168 85 190 63 299 -10 49 -9
66 10 136 12 44 46 125 74 180 47 90 57 102 97 122 53 26 100 29 140 8 62 -32
66 -90 13 -201 l-38 -79 -3 -158 c-3 -139 -1 -165 17 -219 12 -34 21 -79 21
-100 0 -42 -48 -148 -106 -233 -51 -75 -94 -213 -94 -301 0 -66 3 -76 36 -124
66 -96 60 -159 -26 -254 -48 -53 -60 -73 -66 -111 -8 -55 0 -109 27 -193 13
-37 18 -74 15 -90 -4 -15 -39 -92 -79 -170 l-72 -144 -65 -38 c-36 -21 -72
-46 -81 -57 -26 -29 -105 -192 -123 -255 -32 -111 -18 -122 95 -78 91 35 99
36 146 13 40 -19 73 -66 73 -103 0 -50 -69 -228 -149 -388 -83 -165 -135 -296
-153 -387 -6 -27 -19 -79 -29 -115 -22 -79 -14 -97 59 -134 67 -34 85 -57 90
-120 6 -76 -15 -111 -84 -142 -74 -33 -135 -32 -205 4 -45 23 -58 36 -80 80
-32 67 -50 85 -85 85 -36 0 -69 -41 -91 -113 -13 -44 -17 -100 -17 -280 l-1
-225 -28 -57 c-15 -31 -45 -72 -67 -92 -43 -38 -204 -123 -336 -175 -77 -30
-88 -39 -212 -165 -112 -112 -132 -137 -132 -163 0 -57 39 -53 108 10 24 21
89 61 145 88 88 42 111 49 163 49 35 0 85 -8 119 -20 101 -35 133 -27 173 40
31 53 244 257 285 275 51 21 113 19 165 -6 60 -30 93 -99 103 -219 5 -69 13
-99 42 -155 59 -117 67 -160 67 -339 0 -89 -5 -179 -11 -201 -13 -48 -180
-382 -220 -441 -37 -54 -76 -159 -90 -242 -6 -37 -21 -89 -32 -117 -19 -44
-22 -75 -25 -255 l-3 -205 30 -99 c17 -54 31 -111 31 -126 0 -15 9 -53 21 -86
11 -32 24 -100 28 -150 8 -92 40 -183 68 -192 30 -9 37 43 41 348 4 269 7 311
23 353 11 27 23 78 29 114 5 38 24 96 45 142 21 42 59 142 86 223 52 159 170
407 223 472 18 23 42 59 54 82 11 22 48 71 82 109 93 101 93 104 100 365 l6
225 133 265 133 265 106 108 c152 154 224 184 322 135 37 -19 51 -34 75 -83
37 -74 40 -152 8 -235 -11 -30 -23 -79 -27 -108 -4 -30 -16 -77 -28 -105 -27
-66 -38 -300 -16 -330 16 -21 38 -15 58 16 48 77 227 445 250 518 16 48 46
120 67 161 l38 73 5 360 5 360 45 90 c39 79 61 108 185 236 150 155 178 197
190 289 3 30 17 87 31 127 13 39 24 86 24 105 1 18 8 51 16 73 8 22 22 64 30
94 31 111 57 152 156 246 52 50 107 98 121 108 51 34 25 82 -43 80 -75 -3
-165 -72 -208 -158 -11 -22 -34 -58 -52 -80 -18 -22 -54 -83 -80 -135 -65
-128 -140 -202 -269 -264 -52 -25 -107 -46 -123 -46 -63 0 -144 64 -175 138
-21 51 5 118 76 195 80 86 96 112 119 192 11 39 28 92 38 118 17 50 11 106
-12 114 -6 2 -34 -15 -62 -39 -106 -91 -231 -130 -301 -93 -22 11 -40 33 -57
68 -29 63 -30 82 -5 144 10 26 21 71 25 98 4 28 18 82 32 122 34 101 34 235
-1 339 -21 61 -25 94 -25 183 0 156 9 173 180 347 132 134 142 147 192 250 52
107 53 109 53 202 0 87 -2 95 -24 114 -16 12 -33 17 -45 13 -12 -3 -44 -8 -73
-12 -94 -11 -134 23 -168 141 -32 111 -1 194 123 320 91 92 161 136 219 136
18 0 74 -21 131 -50 113 -57 170 -111 196 -186 14 -42 14 -48 -10 -120 -34
-105 -32 -186 7 -311 17 -54 34 -105 39 -113 9 -17 12 -17 90 1 30 7 72 9 92
5 46 -8 112 -67 146 -130 20 -36 41 -58 77 -79 71 -41 160 -131 201 -204 19
-34 50 -110 69 -168 19 -58 44 -124 56 -147 21 -40 21 -53 18 -263 -3 -141 0
-221 6 -222 6 -2 11 80 11 230 1 127 7 270 14 317 17 116 8 269 -19 340 -12
30 -26 98 -31 150 -5 53 -18 120 -30 150 -19 49 -21 71 -18 190 3 128 5 138
33 190 50 92 148 120 242 72 51 -27 67 -56 118 -211 30 -93 36 -124 33 -172
-4 -56 5 -78 19 -44 17 46 157 73 220 44 72 -35 82 -143 20 -224 -51 -66 -49
-94 14 -228 69 -146 68 -164 -31 -358 -40 -79 -88 -161 -107 -183 -43 -47 -58
-82 -73 -166 -6 -36 -19 -88 -30 -115 -10 -28 -21 -73 -25 -100 -4 -28 -18
-81 -30 -120 -25 -77 -39 -238 -27 -295 6 -25 14 -36 30 -38 16 -3 28 8 52 47
73 117 244 122 266 6 8 -43 -33 -137 -98 -223 -27 -35 -55 -78 -64 -95 -21
-41 -54 -77 -70 -77 -7 0 -43 -23 -79 -50 -36 -28 -78 -56 -93 -64 -56 -30
-79 -68 -125 -211 -25 -77 -55 -166 -66 -197 -15 -40 -21 -82 -21 -137 0 -60
-7 -100 -27 -163 -28 -82 -28 -86 -28 -348 l0 -265 29 -83 c26 -75 28 -91 24
-180 -3 -53 -2 -137 2 -187 6 -73 4 -103 -11 -160 -22 -82 -22 -88 -9 -80 21
13 50 85 50 122 0 22 12 63 29 98 16 33 44 101 62 150 33 87 34 96 39 285 5
184 6 197 28 228 27 36 69 62 105 62 13 0 48 -12 78 -27 65 -34 94 -83 111
-189 5 -38 19 -91 30 -118 18 -46 19 -76 18 -413 -1 -420 -4 -405 87 -447 119
-56 176 -143 187 -284 5 -71 71 -288 102 -337 24 -38 54 -125 64 -191 7 -46
29 -101 70 -185 33 -66 71 -153 85 -195 14 -42 85 -197 159 -345 90 -180 148
-310 175 -394 l41 -124 0 -240 c0 -149 4 -250 11 -268 l11 -28 29 35 c16 19
41 71 55 115 14 44 32 96 39 115 8 19 14 52 14 72 1 21 13 68 28 105 36 93 38
222 3 303 -21 50 -23 70 -25 235 -1 168 -3 185 -28 256 -21 59 -27 94 -27 160
0 65 -6 100 -26 154 -14 39 -32 92 -40 118 -8 26 -31 80 -51 120 -30 60 -38
88 -44 162 -4 50 -17 115 -28 145 -11 30 -25 84 -31 120 -6 36 -20 89 -31 118
-17 48 -19 80 -19 335 l0 282 39 116 c50 149 63 173 125 237 66 69 92 82 163
82 76 0 95 -14 139 -103 52 -102 64 -142 70 -227 7 -86 24 -123 57 -118 43 6
52 48 52 248 -1 168 -3 190 -24 245 -12 33 -29 82 -37 109 -9 26 -69 156 -134
287 -66 131 -122 253 -125 272 -4 22 0 50 15 87 11 30 27 91 35 135 21 114
192 454 270 535 56 60 88 114 100 170 4 19 18 60 30 90 13 30 26 80 30 110 4
30 18 87 31 127 14 40 24 95 24 126 0 29 9 80 20 112 11 32 20 71 20 87 0 16
-9 54 -20 85 -14 39 -20 83 -20 138 0 45 -7 104 -15 131 -17 58 -59 114 -73
99 -6 -5 -15 -75 -20 -154 l-10 -144 -53 -106 c-75 -147 -143 -196 -245 -176
-78 14 -179 161 -233 337 -28 92 -42 117 -106 186 -60 65 -105 149 -105 198 0
45 100 242 145 284 104 99 85 157 -69 205 -51 16 -102 40 -119 55 -64 57 -42
181 74 413 55 109 85 156 129 202 76 80 148 223 160 320 20 148 8 292 -31 382
-12 28 -23 80 -26 126 -3 42 -9 77 -13 77 -11 0 -62 -61 -82 -99 -36 -66 -152
-80 -210 -24 -17 16 -36 52 -47 88 -18 57 -19 91 -15 455 4 389 4 394 29 466
22 64 25 89 25 212 0 165 20 240 74 274 45 28 145 21 181 -12 49 -46 65 -115
65 -280 0 -140 1 -150 23 -175 14 -17 28 -24 38 -20 20 7 39 47 39 81 0 39 37
134 74 189 18 28 43 78 56 112 15 43 41 84 80 128 32 37 60 79 64 96 10 54 7
415 -5 471 -6 29 -40 109 -74 178 -77 153 -130 313 -121 361 26 140 200 178
267 58 32 -56 53 -69 76 -47 29 30 23 184 -11 283 -27 79 -27 85 -24 260 4
161 6 185 27 232 32 72 49 85 128 92 38 4 74 10 81 14 15 10 16 67 1 104 -7
15 -15 81 -19 145 -9 143 -26 183 -119 277 -53 53 -79 71 -131 91 -238 87
-355 194 -403 371 -31 112 -80 235 -103 259 -34 35 -50 22 -109 -96 -47 -93
-53 -101 -105 -129 -40 -21 -69 -29 -105 -29 -36 0 -65 8 -105 29 l-55 30
-105 207 c-58 114 -116 218 -128 231 -17 18 -42 28 -87 36 -35 6 -79 18 -98
26 -19 8 -65 19 -103 25 -83 13 -144 39 -198 84 -23 18 -59 42 -81 54 -48 24
-66 43 -94 99 -12 23 -47 71 -80 105 -32 35 -68 82 -80 106 -12 24 -37 60 -55
80 -18 20 -43 54 -55 75 -14 23 -30 37 -43 37 -37 0 -18 -79 56 -235 50 -105
80 -153 116 -190 27 -27 65 -77 85 -110 19 -33 62 -90 94 -126 46 -51 80 -108
155 -257 116 -232 117 -236 50 -367 -38 -74 -65 -109 -150 -196 -69 -70 -105
-114 -106 -130 -3 -55 6 -87 50 -178 43 -91 46 -102 51 -201 7 -126 16 -143
96 -185 32 -16 63 -39 71 -50 20 -32 27 -91 14 -129 -15 -46 -48 -72 -126 -96
-86 -26 -101 -35 -120 -73 -36 -69 -44 -128 -44 -344 0 -246 -8 -279 -85 -373
-51 -62 -75 -128 -75 -207 0 -32 -10 -82 -26 -126 -35 -99 -46 -277 -19 -307
27 -30 41 -25 84 33 138 185 257 216 367 95 51 -55 61 -100 39 -181 -8 -32
-15 -92 -15 -133 0 -48 -7 -96 -20 -133 -38 -113 -42 -148 -25 -213 20 -78 19
-110 -6 -231 -13 -68 -34 -131 -62 -187 -41 -83 -42 -87 -42 -190 0 -129 18
-172 93 -218 56 -34 81 -66 119 -147 35 -78 29 -146 -15 -186 -73 -66 -150
-48 -265 60 -68 64 -96 83 -157 106 -41 16 -88 41 -104 57 -27 27 -28 33 -23
91 3 34 10 91 17 127 18 95 7 231 -27 330 -31 92 -29 101 49 305 11 28 22 76
25 108 5 50 4 57 -12 57 -42 0 -75 -42 -149 -193 -41 -84 -80 -172 -86 -196
-24 -91 -56 -145 -126 -212 -80 -77 -161 -121 -317 -173 -120 -40 -142 -43
-194 -21 -50 21 -71 41 -99 96 -12 25 -63 89 -113 142 -50 53 -93 108 -97 122
-9 38 2 104 31 188 15 39 31 95 36 122 12 63 27 130 39 174 5 19 7 39 4 43 -9
15 -68 -24 -145 -98 -90 -85 -135 -104 -194 -80 -25 11 -40 26 -51 53 -20 47
-8 92 44 171 32 48 38 65 43 132 4 58 13 92 35 136 27 54 34 60 86 81 32 13
90 26 129 29 102 10 120 27 126 125 5 88 17 123 51 149 30 24 91 26 133 4 39
-20 74 -95 89 -188 14 -88 28 -121 76 -177 21 -24 58 -86 82 -136 36 -76 45
-106 53 -189 6 -54 13 -102 15 -106 10 -16 73 96 85 151 19 89 7 262 -24 354
-16 47 -27 99 -27 132 0 33 -10 84 -25 127 -35 99 -35 230 -2 320 13 35 27 89
31 122 3 32 16 81 29 110 17 40 22 70 22 143 0 84 -2 94 -25 118 -14 15 -45
37 -70 50 -25 13 -70 46 -100 75 -30 28 -75 62 -100 77 -25 14 -55 35 -67 46
-29 26 -63 116 -63 168 0 76 -20 104 -110 149 -106 53 -148 93 -200 189 -23
44 -46 78 -50 76 -13 -8 -20 -166 -9 -218 7 -28 31 -91 55 -141 28 -56 44
-103 44 -125 -1 -51 -40 -141 -73 -165 -40 -29 -134 -29 -174 0 -36 27 -72
115 -73 179 0 88 -13 112 -120 220 -89 91 -105 113 -151 209 l-51 106 2 496
c1 459 2 499 19 543 11 26 22 67 26 92 6 42 -8 165 -21 178 -9 10 -41 -35 -58
-82 -47 -133 -126 -392 -126 -413 0 -14 -11 -58 -24 -97 -14 -40 -27 -92 -31
-117 -3 -25 -30 -115 -58 -200 l-52 -155 0 -211 0 -210 38 -55 c21 -31 51 -94
67 -140 15 -46 45 -120 66 -164 l39 -80 0 -130 0 -130 -49 -97 c-27 -54 -63
-115 -81 -135 -18 -21 -41 -56 -53 -78 -36 -72 -95 -105 -185 -105 -71 0 -83
-14 -68 -74 6 -25 11 -91 11 -148 0 -84 5 -116 25 -173 23 -64 25 -84 25 -246
l0 -175 -45 -92 c-24 -50 -66 -120 -93 -156 -73 -94 -76 -137 -20 -249 44 -88
60 -163 48 -225 -12 -66 -43 -127 -76 -148 -34 -23 -125 -22 -160 0 -34 23
-70 104 -84 191 -7 42 -26 102 -50 150 -49 101 -63 163 -55 240 11 89 45 152
123 226 38 35 81 72 95 82 15 10 27 25 27 34 0 21 -76 158 -110 197 -37 42
-70 109 -70 142 0 25 77 271 119 382 25 67 50 91 105 101 78 14 84 26 58 113
-12 41 -24 117 -27 172 -8 139 -33 163 -82 79 -15 -27 -62 -86 -105 -132 -43
-45 -89 -104 -102 -130 -35 -68 -57 -84 -125 -89 -76 -6 -112 13 -140 73 -68
145 -28 292 103 379 52 35 63 48 93 114 51 113 126 185 260 252 60 29 116 60
126 68 22 19 22 71 1 120 -9 20 -27 71 -40 112 -37 123 -70 211 -108 292 -23
49 -36 91 -36 118 0 87 100 220 208 278 90 48 107 72 107 146 0 53 -4 68 -28
99 -15 20 -49 80 -75 134 l-47 98 0 130 0 130 129 260 129 260 115 120 c153
160 176 185 197 218 25 39 1 35 -47 -9 -22 -19 -61 -44 -86 -55 -26 -11 -69
-37 -97 -58 -27 -21 -68 -48 -90 -61 -22 -14 -61 -40 -87 -60 -25 -19 -70 -50
-100 -68 -113 -70 -174 -119 -204 -164 -17 -26 -53 -71 -81 -100 -31 -34 -71
-95 -106 -164 -53 -102 -66 -120 -171 -223 -102 -98 -126 -117 -213 -159 -92
-44 -103 -47 -191 -50 -105 -4 -154 9 -230 60 -47 32 -95 39 -118 17 -8 -8
-30 -60 -49 -114 -38 -110 -56 -132 -130 -161 -41 -15 -53 -16 -89 -5 -22 7
-77 21 -121 30 -95 21 -265 75 -316 101 -67 35 -138 138 -139 202 0 15 25 75
56 134 62 118 65 147 18 152 -41 4 -74 -24 -112 -95 -17 -33 -41 -68 -53 -79
-28 -26 -40 -50 -85 -179 -38 -109 -38 -112 -44 -300 -7 -246 -9 -251 -169
-408 -122 -121 -147 -137 -212 -137 -63 0 -97 24 -127 88 -35 77 -40 152 -13
220 33 83 27 132 -17 132 -35 0 -298 -260 -337 -334 -15 -28 -45 -73 -65 -101
-44 -59 -108 -188 -145 -297 -33 -95 -84 -156 -157 -189 -44 -19 -78 -24 -193
-30 -110 -5 -152 -11 -194 -28 -37 -15 -86 -24 -155 -28 -125 -8 -133 -15
-175 -147 l-31 -96 0 -246 c0 -235 1 -249 25 -317 21 -64 25 -93 28 -252 4
-165 6 -186 32 -258 15 -43 43 -101 63 -130 40 -59 53 -127 32 -178 -15 -35
-75 -69 -125 -69 -77 0 -193 99 -242 207 -25 54 -27 69 -29 212 -1 140 -3 155
-22 174 -21 20 -22 20 -42 2 -34 -30 -40 -81 -40 -322 l0 -233 41 -122 c48
-142 97 -245 146 -305 71 -88 77 -114 83 -358 6 -243 11 -263 74 -337 19 -22
42 -55 50 -73 9 -19 34 -56 57 -85 66 -84 83 -131 83 -240 1 -93 0 -97 -46
-193 -26 -54 -65 -120 -86 -145 -22 -26 -49 -66 -60 -88 -14 -28 -38 -52 -71
-73 -61 -37 -75 -59 -90 -139 -21 -110 -79 -243 -138 -315 -13 -16 -23 -33
-23 -38 0 -5 23 -25 50 -45 91 -65 105 -131 41 -195 -34 -34 -44 -39 -86 -39
-42 0 -52 5 -86 39 -46 45 -50 80 -19 142 12 22 18 44 15 48 -3 5 -36 18 -74
30 -107 33 -156 72 -212 171 -98 174 -68 249 140 349 85 41 126 55 179 61 39
4 75 11 81 14 8 5 10 38 5 109 -5 89 -4 110 15 162 26 74 26 116 1 190 -11 32
-20 81 -20 109 0 30 -7 64 -18 82 -62 112 -83 144 -137 204 -39 42 -78 102
-110 166 l-50 99 -3 170 c-3 162 -2 173 22 238 28 73 32 116 15 149 -10 19
-17 20 -91 13 -65 -5 -84 -4 -105 10 -35 23 -66 97 -58 138 8 34 85 187 128
252 15 22 41 81 58 130 36 103 36 171 -1 266 -11 30 -25 82 -30 117 -6 35 -21
91 -34 125 -39 101 -56 160 -56 190 0 15 16 74 36 130 20 56 42 124 50 151 7
27 23 73 34 103 36 98 21 107 -62 39 -35 -28 -66 -65 -86 -104 -18 -33 -50
-82 -72 -108 -57 -68 -70 -122 -70 -279 0 -157 -16 -223 -65 -272 -30 -30 -39
-33 -89 -33 -32 0 -69 6 -85 14 -49 26 -123 187 -146 317 -16 87 -64 203 -91
217 -11 5 -41 12 -69 16 -88 11 -143 47 -267 173 -95 98 -118 128 -136 176
-12 32 -22 70 -22 84 0 15 20 68 45 120 55 113 69 176 61 262 -9 106 -46 120
-90 34 -57 -114 -250 -243 -360 -243 -28 0 -70 9 -93 20 -39 17 -47 28 -99
132 -55 112 -58 115 -244 303 l-189 190 -106 210 c-115 228 -128 246 -147 227
-10 -10 -13 -65 -13 -210 1 -180 3 -202 23 -250 12 -29 22 -67 22 -85 0 -40
-36 -103 -73 -131 -36 -27 -121 -27 -162 0 -33 22 -97 150 -146 294 -32 92
-33 101 -38 310 -6 206 -7 219 -36 300 -29 83 -33 88 -161 220 -155 160 -183
207 -265 455 -33 99 -33 210 0 285 29 65 41 227 22 298 -14 51 -43 57 -64 15
-20 -39 -73 -216 -87 -288 -7 -33 -19 -76 -27 -95 -8 -19 -19 -75 -24 -125 -5
-49 -19 -117 -31 -150 -20 -54 -23 -82 -26 -289 -2 -126 -1 -240 3 -253 3 -12
31 -52 63 -86 80 -89 92 -129 92 -298 0 -112 -4 -146 -21 -195 -11 -32 -23
-95 -26 -139 -4 -68 -1 -91 21 -154 26 -74 26 -78 26 -375 -1 -287 -2 -303
-23 -355 -27 -68 -65 -93 -138 -93 -64 0 -96 21 -129 88 -24 47 -25 58 -31
299 -5 232 -7 254 -28 305 -62 146 -81 229 -81 352 0 127 -9 168 -38 168 -31
0 -53 -35 -67 -102 -7 -35 -22 -99 -34 -142 -17 -64 -21 -108 -21 -230 0 -121
-4 -163 -20 -213 -16 -52 -17 -71 -9 -126 8 -51 7 -77 -5 -125 -23 -86 -20
-181 5 -250 16 -41 24 -92 29 -187 5 -101 13 -150 35 -217 36 -114 30 -164
-31 -285 -52 -101 -64 -116 -116 -145 -23 -13 -54 -46 -79 -84 -71 -109 -166
-184 -234 -184 -14 0 -53 12 -87 26 -113 47 -132 10 -126 -242 l4 -159 47 -94
c26 -52 47 -106 47 -121 0 -14 -11 -49 -25 -76 -20 -41 -36 -56 -86 -84 -79
-45 -131 -102 -158 -174 -45 -122 -71 -146 -156 -146 -69 0 -102 22 -133 88
-23 50 -27 72 -30 183 -4 113 -1 132 21 200 14 41 29 97 33 124 10 72 31 122
78 185 23 30 46 63 53 75 19 32 15 122 -8 186 -21 58 -21 60 -4 107 26 69 55
110 117 169 73 69 117 82 198 60 72 -20 65 -20 84 -1 20 19 21 86 2 123 -21
40 -181 188 -229 212 -55 28 -75 47 -98 91 -25 48 -24 101 1 154 25 51 68 74
138 74 61 0 89 -20 132 -96 26 -47 40 -60 85 -80 62 -29 108 -29 113 0 4 18
-22 112 -58 211 -62 172 -69 212 -65 370 3 111 8 160 21 190 9 22 22 63 30 92
7 29 57 139 111 245 l98 193 3 151 c3 140 2 156 -22 225 -14 41 -29 101 -35
135 -5 33 -17 78 -26 100 -9 21 -19 67 -22 101 -5 52 -1 78 27 165 17 57 40
123 50 148 10 25 25 72 35 104 9 33 31 89 50 125 18 36 40 93 49 126 23 79
110 252 147 290 16 17 40 59 54 94 30 79 44 94 101 116 36 14 45 21 42 38 -6
41 -36 30 -102 -35z m-10256 -3343 c22 -11 43 -42 82 -121 l53 -107 3 -111 4
-111 -56 -159 c-33 -94 -56 -177 -56 -201 0 -41 13 -65 36 -65 25 0 72 51 97
104 31 65 64 86 137 86 80 0 104 -20 158 -130 l47 -95 3 -200 c4 -224 0 -249
-56 -340 -34 -55 -37 -68 -43 -160 -5 -77 -15 -125 -44 -210 -21 -60 -44 -122
-52 -136 -24 -40 -64 -59 -126 -59 -44 0 -61 5 -96 31 -24 17 -50 44 -59 61
-65 118 -102 115 -163 -12 -36 -77 -95 -244 -104 -298 -11 -65 20 -154 77
-225 70 -87 77 -166 20 -220 -29 -28 -124 -67 -163 -67 -46 0 -85 -30 -122
-94 -45 -76 -92 -102 -164 -91 -60 9 -90 39 -118 120 -31 89 -31 110 3 192 23
59 27 82 27 173 0 111 -10 180 -25 180 -6 0 -24 -30 -40 -67 -17 -38 -44 -85
-61 -106 -47 -58 -70 -121 -78 -211 -8 -88 -26 -133 -66 -164 -62 -49 -141
-30 -183 43 -21 38 -22 49 -20 220 l3 180 43 88 c68 136 74 260 22 382 -26 61
-25 83 7 158 26 60 27 69 29 276 3 212 3 214 31 270 33 66 58 81 133 81 42 0
64 -6 91 -24 47 -32 95 -106 116 -175 17 -60 53 -104 77 -95 22 8 21 105 -1
147 -11 22 -19 71 -23 152 -6 102 -12 132 -39 199 -17 43 -43 92 -56 110 -42
55 -159 307 -158 341 1 17 23 76 51 131 59 116 138 200 227 239 50 23 69 25
193 25 117 0 142 3 172 19 117 65 172 76 230 46z m3768 -331 c37 -24 72 -109
72 -177 0 -97 15 -119 106 -157 96 -39 110 -51 140 -115 22 -47 24 -61 24
-246 0 -215 -8 -260 -57 -311 -39 -41 -113 -63 -168 -49 -49 12 -71 7 -85 -20
-13 -24 -13 -610 0 -644 5 -14 44 -62 85 -105 57 -60 86 -101 119 -169 57
-118 63 -152 37 -222 -27 -71 -61 -102 -139 -128 -53 -18 -84 -21 -220 -20
-145 1 -163 0 -236 -25 -97 -32 -183 -34 -263 -6 -70 24 -90 42 -119 105 -32
68 -32 148 1 240 28 78 33 183 12 225 -14 26 -9 26 -124 18 -35 -3 -47 2 -72
26 -55 53 -63 91 -59 297 l3 184 51 106 c42 86 58 110 89 129 53 33 121 37
178 12 53 -24 79 -60 103 -142 30 -101 45 -137 64 -155 34 -30 45 11 45 165 0
129 -2 138 -33 215 -18 44 -43 96 -56 115 -37 56 -81 141 -101 193 -30 80 -11
112 180 307 152 155 163 169 183 230 31 91 55 127 94 139 42 13 115 5 146 -15z
m13715 -37 c73 -33 95 -74 108 -205 9 -82 18 -112 56 -196 39 -83 48 -114 54
-185 4 -47 13 -102 18 -121 17 -55 13 -96 -19 -191 -52 -156 -82 -203 -209
-333 -64 -65 -139 -131 -166 -147 -95 -54 -120 -89 -170 -242 -42 -127 -45
-145 -45 -241 0 -74 -6 -122 -19 -167 -11 -35 -25 -93 -31 -129 -7 -41 -30
-103 -62 -168 -43 -85 -62 -113 -110 -155 -47 -41 -58 -56 -56 -76 3 -23 8
-26 49 -29 38 -2 62 5 147 48 66 33 110 62 126 83 37 50 90 163 121 261 37
116 64 147 133 154 65 6 93 -1 125 -34 49 -48 56 -96 58 -364 1 -233 0 -248
-21 -300 -19 -46 -24 -82 -30 -225 -5 -140 -10 -178 -27 -216 -38 -84 -132
-118 -232 -84 -59 19 -95 14 -112 -16 -7 -15 -9 -96 -7 -263 4 -234 5 -243 32
-316 25 -65 27 -85 23 -155 -5 -93 -33 -165 -73 -192 -16 -10 -57 -20 -97 -24
-95 -9 -97 -12 -97 -168 0 -108 4 -136 25 -196 21 -58 25 -89 25 -177 0 -128
-18 -187 -81 -263 -22 -27 -49 -65 -59 -85 -10 -19 -26 -42 -36 -51 -65 -58
-353 -161 -447 -161 -73 0 -162 41 -194 91 -54 81 -37 153 63 261 86 94 199
316 219 429 7 42 22 102 34 133 33 90 30 222 -9 340 -16 50 -30 101 -30 114 0
12 23 91 50 174 28 83 53 171 57 195 6 44 5 45 -21 45 -20 0 -45 -19 -102 -77
-42 -43 -82 -91 -91 -107 -34 -66 -94 -260 -99 -324 -6 -62 -27 -143 -76 -282
-57 -163 -160 -278 -318 -354 l-85 -41 -140 0 c-130 0 -143 2 -189 25 -84 43
-117 139 -79 226 13 30 19 80 23 209 5 160 7 173 33 222 29 56 43 68 98 78 62
12 113 -10 179 -75 102 -101 124 -79 117 120 -3 98 -9 136 -25 178 -12 29 -22
74 -22 100 0 26 -7 78 -15 117 -8 38 -15 82 -15 96 0 27 56 143 95 195 26 34
140 98 195 109 54 10 213 92 250 128 41 40 102 161 98 194 -6 49 -26 50 -159
5 -138 -47 -175 -50 -236 -23 -52 24 -67 47 -108 165 -18 52 -67 163 -110 247
-74 146 -77 156 -73 210 4 62 26 97 87 140 67 47 87 73 94 117 12 71 52 149
86 166 61 32 151 16 196 -34 11 -13 38 -36 59 -51 41 -31 66 -26 66 12 0 62
-151 411 -204 467 -11 13 -50 41 -86 62 -36 21 -77 51 -92 67 -39 41 -177 329
-184 385 -8 60 19 148 63 202 18 23 45 63 60 90 44 78 93 127 158 158 72 34
96 35 172 6 42 -15 77 -39 125 -86 85 -81 109 -130 119 -238 4 -46 17 -112 28
-146 16 -47 22 -97 25 -193 4 -122 6 -135 40 -215 33 -81 127 -213 134 -191 5
15 -35 191 -53 236 -12 28 -16 61 -13 120 3 73 8 90 54 185 28 58 70 128 93
155 78 93 88 191 35 331 -23 61 -24 73 -14 109 26 89 46 110 149 160 53 26
116 64 141 85 46 38 112 74 210 117 72 31 162 27 243 -10z m-5448 -604 c112
-52 134 -69 161 -127 38 -82 33 -146 -26 -322 -58 -174 -62 -220 -25 -326 40
-115 36 -181 -26 -368 -28 -85 -62 -183 -75 -218 -13 -34 -24 -76 -24 -92 0
-26 4 -30 28 -30 41 0 76 26 213 161 117 115 130 131 172 219 25 52 48 111 52
130 31 148 189 310 304 310 48 0 210 -79 244 -119 15 -18 27 -38 27 -44 0 -6
21 -37 46 -70 62 -79 84 -139 84 -232 0 -96 -24 -166 -83 -242 -25 -32 -53
-74 -62 -93 -10 -19 -31 -50 -48 -69 -79 -91 -77 -186 6 -281 54 -62 77 -127
78 -222 2 -102 -19 -172 -61 -213 -28 -26 -39 -30 -121 -35 l-90 -5 -35 -42
c-40 -48 -89 -68 -146 -59 -93 15 -128 80 -139 256 -5 79 -13 131 -27 166 -16
40 -22 81 -25 190 -5 146 -16 198 -41 188 -21 -8 -53 -90 -66 -165 -5 -35 -19
-93 -30 -127 -18 -57 -20 -92 -20 -325 l0 -262 31 -95 32 -95 138 -140 c148
-152 162 -176 143 -254 -9 -36 -39 -63 -139 -125 -60 -37 -92 -86 -104 -162
-12 -75 -42 -138 -78 -161 -37 -25 -124 -23 -160 3 -19 13 -62 87 -133 227
-99 196 -123 229 -150 212 -6 -4 -10 -53 -10 -115 0 -90 4 -121 23 -172 13
-35 27 -85 30 -111 8 -61 101 -342 127 -384 11 -18 41 -43 67 -57 111 -56 123
-93 123 -371 0 -224 -8 -275 -59 -359 -10 -17 -29 -62 -41 -101 -50 -154 -78
-185 -168 -185 -72 0 -111 30 -139 105 -19 52 -22 81 -22 212 -1 187 13 233
95 322 61 66 69 101 30 126 -20 14 -31 14 -68 5 -134 -36 -248 -153 -264 -272
-5 -38 -2 -49 31 -97 52 -75 68 -128 63 -209 -4 -80 -35 -150 -77 -175 -36
-21 -112 -22 -151 -2 -34 18 -58 60 -93 165 -14 41 -38 104 -55 140 -56 123
-122 336 -122 395 0 60 31 133 96 228 57 82 44 155 -43 251 -72 78 -83 121
-83 309 0 181 -6 201 -73 274 -25 27 -54 67 -66 90 -12 23 -34 57 -50 75 -41
47 -71 112 -71 152 0 40 77 193 134 264 20 26 56 88 79 137 41 89 42 91 45
220 l4 131 -42 124 c-23 69 -83 207 -133 308 -90 180 -91 183 -97 275 -9 114
-15 129 -49 125 -18 -2 -31 -14 -44 -38 -16 -31 -18 -56 -14 -220 4 -172 6
-190 31 -255 26 -66 28 -78 24 -205 -3 -120 -6 -140 -28 -184 -34 -68 -68 -91
-134 -91 -70 0 -100 22 -138 101 -33 69 -42 78 -129 122 -44 22 -59 36 -79 77
-24 47 -25 61 -30 270 -5 178 -9 228 -24 265 -10 25 -26 72 -36 105 -10 33
-26 81 -35 107 -13 36 -16 73 -13 151 3 99 5 106 51 202 27 55 55 107 63 117
9 9 43 26 77 38 34 12 74 27 89 32 38 14 49 61 46 195 -2 98 0 113 24 165 14
31 36 61 47 68 40 21 113 23 150 3 78 -41 103 -124 99 -332 l-3 -144 40 -31
c22 -17 99 -89 171 -161 l132 -130 26 -87 c28 -90 43 -112 73 -106 37 7 44 45
40 203 -3 122 -8 161 -26 210 -12 33 -26 87 -31 121 -5 33 -30 104 -55 158
-25 53 -53 128 -62 166 -16 66 -16 74 0 142 26 105 65 186 98 204 15 8 53 14
83 14 109 0 156 -82 156 -274 l0 -113 40 -59 c52 -76 70 -138 70 -239 0 -88
13 -120 45 -113 45 8 187 312 202 431 4 31 -1 49 -31 97 -41 66 -51 104 -42
154 13 68 97 135 171 136 16 0 65 -17 110 -37z m2165 -2672 c38 -28 45 -69 26
-145 -11 -44 -16 -108 -16 -197 0 -112 -3 -139 -20 -174 -37 -76 -129 -100
-189 -50 -53 45 -63 91 -59 271 3 154 4 161 33 219 27 54 35 62 85 83 61 25
100 23 140 -7z m-913 -3276 c86 -57 80 -250 -9 -305 -95 -58 -197 23 -198 156
0 132 111 212 207 149z"/>
<path d="M37640 27515 c-6 -19 -10 -43 -8 -52 3 -14 8 -11 21 14 18 35 23 73
8 73 -5 0 -15 -16 -21 -35z"/>
<path d="M26432 19990 c0 -14 2 -19 5 -12 2 6 2 18 0 25 -3 6 -5 1 -5 -13z"/>
</g>
</svg>
